<svg width="97" height="97" viewBox="0 0 97 97" fill="none" xmlns="http://www.w3.org/2000/svg">
<circle cx="48.5" cy="48.5" r="48.5" fill="white"/>
<mask id="path-2-outside-1_1818_930" maskUnits="userSpaceOnUse" x="32" y="17" width="46" height="62" fill="black">
<rect fill="white" x="32" y="17" width="46" height="62"/>
<path fill-rule="evenodd" clip-rule="evenodd" d="M35 28.1051C35 35.9136 38.1657 42.9937 43.2712 48.1049L43.2711 48.1051C43.2711 48.1051 43.2711 48.1052 43.2712 48.1052C38.1657 53.2164 35 60.2966 35 68.105C35 70.0739 35.2021 71.989 35.5793 73.85C39.0414 75.3605 42.8672 76.2101 46.8951 76.2101C60.4057 76.2101 71.694 66.7308 74.4835 54.0417C74.5061 54.0318 74.5287 54.0219 74.5512 54.012C74.9284 52.1509 75.1305 50.2359 75.1305 48.2669C75.1305 46.1679 74.9025 44.136 74.4733 42.1711H74.4841C71.6956 29.4807 60.4067 20 46.8951 20C42.8672 20 39.0414 20.8361 35.5793 22.3601C35.2021 24.2211 35 26.1362 35 28.1051Z"/>
</mask>
<path fill-rule="evenodd" clip-rule="evenodd" d="M35 28.1051C35 35.9136 38.1657 42.9937 43.2712 48.1049L43.2711 48.1051C43.2711 48.1051 43.2711 48.1052 43.2712 48.1052C38.1657 53.2164 35 60.2966 35 68.105C35 70.0739 35.2021 71.989 35.5793 73.85C39.0414 75.3605 42.8672 76.2101 46.8951 76.2101C60.4057 76.2101 71.694 66.7308 74.4835 54.0417C74.5061 54.0318 74.5287 54.0219 74.5512 54.012C74.9284 52.1509 75.1305 50.2359 75.1305 48.2669C75.1305 46.1679 74.9025 44.136 74.4733 42.1711H74.4841C71.6956 29.4807 60.4067 20 46.8951 20C42.8672 20 39.0414 20.8361 35.5793 22.3601C35.2021 24.2211 35 26.1362 35 28.1051Z" fill="url(#paint0_linear_1818_930)"/>
<path d="M43.2712 48.1049L45.0905 49.9348L46.9246 48.1113L45.0968 46.2814L43.2712 48.1049ZM43.2711 48.1051L41.4518 46.2753L39.6167 48.0998L41.4465 49.9296L43.2711 48.1051ZM43.2712 48.1052L45.0967 49.9287L46.9192 48.1042L45.0957 46.2807L43.2712 48.1052ZM35.5793 73.85L33.0504 74.3626L33.3171 75.6782L34.5475 76.215L35.5793 73.85ZM74.4835 54.0417L73.4505 51.6773L72.2457 52.2036L71.9634 53.4877L74.4835 54.0417ZM74.5512 54.012L75.5908 56.3736L76.8145 55.8349L77.0801 54.5246L74.5512 54.012ZM74.4733 42.1711V39.5909H71.2686L71.9525 42.7218L74.4733 42.1711ZM74.4841 42.1711V44.7514H77.6929L77.0043 41.6174L74.4841 42.1711ZM35.5793 22.3601L34.5397 19.9985L33.316 20.5371L33.0504 21.8475L35.5793 22.3601ZM45.0968 46.2814C40.4554 41.6349 37.5803 35.2032 37.5803 28.1051H32.4197C32.4197 36.6239 35.876 44.3525 41.4457 49.9285L45.0968 46.2814ZM45.0903 49.9349L45.0905 49.9348L41.452 46.2751L41.4518 46.2753L45.0903 49.9349ZM45.0957 46.2807C45.0918 46.2768 45.0886 46.2736 45.0867 46.2717C45.0857 46.2708 45.0849 46.27 45.0845 46.2695C45.0842 46.2693 45.084 46.2691 45.0839 46.2689C45.0838 46.2689 45.0838 46.2688 45.0837 46.2688C45.0837 46.2688 45.0837 46.2688 45.0837 46.2688C45.0837 46.2688 45.0837 46.2688 45.0837 46.2688C45.0837 46.2687 45.0837 46.2687 45.0837 46.2687C45.0834 46.2685 45.0849 46.27 45.0866 46.2717C45.0885 46.2735 45.0917 46.2767 45.0956 46.2806L41.4465 49.9296C41.4505 49.9336 41.4536 49.9367 41.4556 49.9386C41.4565 49.9396 41.4573 49.9404 41.4578 49.9408C41.458 49.9411 41.4582 49.9413 41.4584 49.9414C41.4584 49.9414 41.4585 49.9415 41.4585 49.9415C41.4585 49.9415 41.4585 49.9416 41.4585 49.9416C41.4586 49.9416 41.4586 49.9416 41.4586 49.9416C41.4586 49.9416 41.4586 49.9416 41.4586 49.9416C41.4588 49.9418 41.4573 49.9404 41.4556 49.9387C41.4537 49.9368 41.4506 49.9336 41.4467 49.9297L45.0957 46.2807ZM41.4456 46.2817C35.8759 51.8576 32.4197 59.5862 32.4197 68.105H37.5803C37.5803 61.007 40.4554 54.5753 45.0967 49.9287L41.4456 46.2817ZM32.4197 68.105C32.4197 70.2518 32.6402 72.3385 33.0504 74.3626L38.1081 73.3375C37.764 71.6394 37.5803 69.8961 37.5803 68.105H32.4197ZM34.5475 76.215C38.3247 77.8629 42.501 78.7904 46.8951 78.7904V73.6298C43.2334 73.6298 39.7581 72.858 36.6111 71.485L34.5475 76.215ZM46.8951 78.7904C61.6439 78.7904 73.9597 68.4419 77.0036 54.5957L71.9634 53.4877C69.4282 65.0196 59.1675 73.6298 46.8951 73.6298V78.7904ZM73.5116 51.6504C73.4912 51.6595 73.4708 51.6684 73.4505 51.6773L75.5166 56.4062C75.5415 56.3953 75.5662 56.3844 75.5908 56.3736L73.5116 51.6504ZM72.5502 48.2669C72.5502 50.0581 72.3665 51.8014 72.0224 53.4995L77.0801 54.5246C77.4903 52.5005 77.7108 50.4138 77.7108 48.2669H72.5502ZM71.9525 42.7218C72.3429 44.5089 72.5502 46.3563 72.5502 48.2669H77.7108C77.7108 45.9795 77.4622 43.763 76.9942 41.6205L71.9525 42.7218ZM74.4841 39.5909H74.4733V44.7514H74.4841V39.5909ZM46.8951 22.5803C59.1684 22.5803 69.4297 31.1917 71.964 42.7249L77.0043 41.6174C73.9615 27.7697 61.645 17.4197 46.8951 17.4197V22.5803ZM36.6188 24.7217C39.7556 23.3409 43.2276 22.5803 46.8951 22.5803V17.4197C42.5068 17.4197 38.3272 18.3313 34.5397 19.9985L36.6188 24.7217ZM37.5803 28.1051C37.5803 26.314 37.764 24.5707 38.1081 22.8726L33.0504 21.8475C32.6402 23.8716 32.4197 25.9583 32.4197 28.1051H37.5803Z" fill="white" mask="url(#path-2-outside-1_1818_930)"/>
<path d="M74.5512 54.0118C74.9284 52.1507 75.1304 50.2357 75.1304 48.2667C75.1304 46.1629 74.9014 44.1265 74.4703 42.1575C71.0217 40.6605 67.2228 39.8379 63.2353 39.8379C55.4355 39.8379 48.3766 42.9936 43.271 48.1049C48.3766 53.2161 55.4355 56.3719 63.2353 56.3719C67.2632 56.3719 71.0891 55.5357 74.5512 54.0118Z" fill="url(#paint1_radial_1818_930)"/>
<path d="M74.4572 42.1711C71.0086 40.6742 67.2097 39.8515 63.2222 39.8515C55.4358 39.8515 48.3769 43.0073 43.2713 48.105C38.1657 42.9938 35 35.9136 35 28.1051C35 26.1362 35.2021 24.2211 35.5793 22.3601C39.0414 20.8361 42.8672 20 46.8951 20C60.4067 20 71.6956 29.4807 74.4841 42.1711H74.4572Z" fill="url(#paint2_linear_1818_930)"/>
<path d="M74.4572 54.0389C71.0086 55.5358 67.2097 56.3585 63.2222 56.3585C55.4358 56.3585 48.3769 53.2027 43.2713 48.105C38.1657 53.2162 35 60.2964 35 68.1049C35 70.0738 35.2021 71.9889 35.5793 73.8499C39.0414 75.3604 42.8672 76.21 46.8951 76.21C60.4067 76.21 71.6956 66.7293 74.4841 54.0389H74.4572Z" fill="url(#paint3_linear_1818_930)"/>
<defs>
<linearGradient id="paint0_linear_1818_930" x1="36.2124" y1="65.5831" x2="64.5708" y2="60.5367" gradientUnits="userSpaceOnUse">
<stop stop-color="#2D5CF3"/>
<stop offset="1" stop-color="#0034AA"/>
</linearGradient>
<radialGradient id="paint1_radial_1818_930" cx="0" cy="0" r="1" gradientUnits="userSpaceOnUse" gradientTransform="translate(48.9424 48.0509) scale(28.0201 23.7401)">
<stop stop-color="#3C69FF"/>
<stop offset="1" stop-color="#0034AA"/>
</radialGradient>
<linearGradient id="paint2_linear_1818_930" x1="41.9377" y1="24.9224" x2="50.1712" y2="48.0453" gradientUnits="userSpaceOnUse">
<stop stop-color="#2D5AF1"/>
<stop offset="1" stop-color="#0034AA"/>
</linearGradient>
<linearGradient id="paint3_linear_1818_930" x1="36.2124" y1="65.583" x2="64.5712" y2="60.5365" gradientUnits="userSpaceOnUse">
<stop stop-color="#2D5CF3"/>
<stop offset="1" stop-color="#0034AA"/>
</linearGradient>
</defs>
</svg>
