<svg width="695" height="274" viewBox="0 0 695 274" fill="none" xmlns="http://www.w3.org/2000/svg">
<g clip-path="url(#clip0_332_16448)">
<rect width="695" height="274" fill="#1B1B1B"/>
<path d="M301.5 45.2195H-9V201.5H301.5V180.488H708V25.5H301.5V45.2195Z" fill="url(#paint0_linear_332_16448)" stroke="#434343" stroke-width="0.5"/>
<path d="M301.5 116H-9L-7 152H301.5V132.488H708V96H301.5V116Z" fill="url(#paint1_linear_332_16448)" stroke="#A6A6A6" stroke-width="0.5" stroke-dasharray="2 2"/>
<line x1="16" y1="248" x2="35" y2="248" stroke="#D8DADC" stroke-width="2"/>
<path d="M49.644 246.944H49.584L48.876 248.348L46.872 251.996L44.868 248.348L44.16 246.944H44.1V254H43.116V245.624H44.46L46.86 250.136H46.92L49.332 245.624H50.628V254H49.644V246.944ZM57.2583 254C56.8983 254 56.6383 253.904 56.4783 253.712C56.3263 253.52 56.2303 253.28 56.1903 252.992H56.1303C55.9943 253.376 55.7703 253.664 55.4583 253.856C55.1463 254.048 54.7743 254.144 54.3423 254.144C53.6863 254.144 53.1743 253.976 52.8063 253.64C52.4463 253.304 52.2663 252.848 52.2663 252.272C52.2663 251.688 52.4783 251.24 52.9023 250.928C53.3343 250.616 54.0023 250.46 54.9063 250.46H56.1303V249.848C56.1303 249.408 56.0103 249.072 55.7703 248.84C55.5303 248.608 55.1623 248.492 54.6663 248.492C54.2903 248.492 53.9743 248.576 53.7183 248.744C53.4703 248.912 53.2623 249.136 53.0943 249.416L52.5183 248.876C52.6863 248.54 52.9543 248.256 53.3223 248.024C53.6903 247.784 54.1543 247.664 54.7143 247.664C55.4663 247.664 56.0503 247.848 56.4663 248.216C56.8823 248.584 57.0903 249.096 57.0903 249.752V253.16H57.7983V254H57.2583ZM54.4983 253.328C54.7383 253.328 54.9583 253.3 55.1583 253.244C55.3583 253.188 55.5303 253.108 55.6743 253.004C55.8183 252.9 55.9303 252.78 56.0103 252.644C56.0903 252.508 56.1303 252.36 56.1303 252.2V251.18H54.8583C54.3063 251.18 53.9023 251.26 53.6463 251.42C53.3983 251.58 53.2743 251.812 53.2743 252.116V252.368C53.2743 252.672 53.3823 252.908 53.5983 253.076C53.8223 253.244 54.1223 253.328 54.4983 253.328ZM59.1684 254V247.808H60.1284V248.948H60.1884C60.3004 248.652 60.5004 248.388 60.7884 248.156C61.0764 247.924 61.4724 247.808 61.9764 247.808H62.3484V248.768H61.7844C61.2644 248.768 60.8564 248.868 60.5604 249.068C60.2724 249.26 60.1284 249.504 60.1284 249.8V254H59.1684ZM63.5747 245.12H64.5347V250.748H64.5827L65.5307 249.692L67.2827 247.808H68.4467L66.1547 250.256L68.6747 254H67.5107L65.4587 250.844L64.5347 251.792V254H63.5747V245.12ZM72.0316 254.144C71.6076 254.144 71.2236 254.068 70.8796 253.916C70.5436 253.764 70.2516 253.548 70.0036 253.268C69.7636 252.98 69.5756 252.64 69.4396 252.248C69.3116 251.848 69.2476 251.4 69.2476 250.904C69.2476 250.416 69.3116 249.972 69.4396 249.572C69.5756 249.172 69.7636 248.832 70.0036 248.552C70.2516 248.264 70.5436 248.044 70.8796 247.892C71.2236 247.74 71.6076 247.664 72.0316 247.664C72.4476 247.664 72.8196 247.74 73.1476 247.892C73.4756 248.044 73.7556 248.256 73.9876 248.528C74.2196 248.792 74.3956 249.108 74.5156 249.476C74.6436 249.844 74.7076 250.248 74.7076 250.688V251.144H70.2556V251.432C70.2556 251.696 70.2956 251.944 70.3756 252.176C70.4636 252.4 70.5836 252.596 70.7356 252.764C70.8956 252.932 71.0876 253.064 71.3116 253.16C71.5436 253.256 71.8036 253.304 72.0916 253.304C72.4836 253.304 72.8236 253.212 73.1116 253.028C73.4076 252.844 73.6356 252.58 73.7956 252.236L74.4796 252.728C74.2796 253.152 73.9676 253.496 73.5436 253.76C73.1196 254.016 72.6156 254.144 72.0316 254.144ZM72.0316 248.468C71.7676 248.468 71.5276 248.516 71.3116 248.612C71.0956 248.7 70.9076 248.828 70.7476 248.996C70.5956 249.164 70.4756 249.364 70.3876 249.596C70.2996 249.82 70.2556 250.068 70.2556 250.34V250.424H73.6756V250.292C73.6756 249.74 73.5236 249.3 73.2196 248.972C72.9236 248.636 72.5276 248.468 72.0316 248.468ZM77.6575 254C77.3215 254 77.0655 253.908 76.8895 253.724C76.7215 253.532 76.6375 253.284 76.6375 252.98V248.648H75.6175V247.808H76.1935C76.4015 247.808 76.5415 247.768 76.6135 247.688C76.6935 247.6 76.7335 247.452 76.7335 247.244V246.092H77.5975V247.808H78.9535V248.648H77.5975V253.16H78.8575V254H77.6575ZM83.4285 254V245.624H86.7645C87.5165 245.624 88.0925 245.84 88.4925 246.272C88.9005 246.696 89.1045 247.28 89.1045 248.024C89.1045 248.768 88.9005 249.356 88.4925 249.788C88.0925 250.212 87.5165 250.424 86.7645 250.424H84.4365V254H83.4285ZM84.4365 249.536H86.7645C87.1645 249.536 87.4725 249.432 87.6885 249.224C87.9125 249.016 88.0245 248.72 88.0245 248.336V247.712C88.0245 247.328 87.9125 247.032 87.6885 246.824C87.4725 246.616 87.1645 246.512 86.7645 246.512H84.4365V249.536ZM90.4927 254V247.808H91.4527V248.948H91.5127C91.6247 248.652 91.8247 248.388 92.1127 248.156C92.4007 247.924 92.7967 247.808 93.3007 247.808H93.6727V248.768H93.1087C92.5887 248.768 92.1807 248.868 91.8847 249.068C91.5967 249.26 91.4527 249.504 91.4527 249.8V254H90.4927ZM95.3789 246.356C95.1709 246.356 95.0189 246.308 94.9229 246.212C94.8349 246.108 94.7909 245.976 94.7909 245.816V245.66C94.7909 245.5 94.8349 245.372 94.9229 245.276C95.0189 245.172 95.1709 245.12 95.3789 245.12C95.5869 245.12 95.7349 245.172 95.8229 245.276C95.9189 245.372 95.9669 245.5 95.9669 245.66V245.816C95.9669 245.976 95.9189 246.108 95.8229 246.212C95.7349 246.308 95.5869 246.356 95.3789 246.356ZM94.8989 247.808H95.8589V254H94.8989V247.808ZM100.203 254.144C99.7709 254.144 99.3829 254.068 99.0389 253.916C98.6949 253.764 98.4029 253.548 98.1629 253.268C97.9309 252.988 97.7509 252.648 97.6229 252.248C97.5029 251.848 97.4429 251.4 97.4429 250.904C97.4429 250.408 97.5029 249.96 97.6229 249.56C97.7509 249.16 97.9309 248.82 98.1629 248.54C98.4029 248.26 98.6949 248.044 99.0389 247.892C99.3829 247.74 99.7709 247.664 100.203 247.664C100.819 247.664 101.311 247.8 101.679 248.072C102.055 248.336 102.335 248.684 102.519 249.116L101.715 249.524C101.603 249.204 101.419 248.956 101.163 248.78C100.907 248.604 100.587 248.516 100.203 248.516C99.9149 248.516 99.6629 248.564 99.4469 248.66C99.2309 248.748 99.0509 248.876 98.9069 249.044C98.7629 249.204 98.6549 249.4 98.5829 249.632C98.5109 249.856 98.4749 250.104 98.4749 250.376V251.432C98.4749 251.976 98.6189 252.424 98.9069 252.776C99.2029 253.12 99.6349 253.292 100.203 253.292C100.979 253.292 101.539 252.932 101.883 252.212L102.579 252.68C102.379 253.128 102.079 253.484 101.679 253.748C101.287 254.012 100.795 254.144 100.203 254.144ZM106.192 254.144C105.768 254.144 105.384 254.068 105.04 253.916C104.704 253.764 104.412 253.548 104.164 253.268C103.924 252.98 103.736 252.64 103.6 252.248C103.472 251.848 103.408 251.4 103.408 250.904C103.408 250.416 103.472 249.972 103.6 249.572C103.736 249.172 103.924 248.832 104.164 248.552C104.412 248.264 104.704 248.044 105.04 247.892C105.384 247.74 105.768 247.664 106.192 247.664C106.608 247.664 106.98 247.74 107.308 247.892C107.636 248.044 107.916 248.256 108.148 248.528C108.38 248.792 108.556 249.108 108.676 249.476C108.804 249.844 108.868 250.248 108.868 250.688V251.144H104.416V251.432C104.416 251.696 104.456 251.944 104.536 252.176C104.624 252.4 104.744 252.596 104.896 252.764C105.056 252.932 105.248 253.064 105.472 253.16C105.704 253.256 105.964 253.304 106.252 253.304C106.644 253.304 106.984 253.212 107.272 253.028C107.568 252.844 107.796 252.58 107.956 252.236L108.64 252.728C108.44 253.152 108.128 253.496 107.704 253.76C107.28 254.016 106.776 254.144 106.192 254.144ZM106.192 248.468C105.928 248.468 105.688 248.516 105.472 248.612C105.256 248.7 105.068 248.828 104.908 248.996C104.756 249.164 104.636 249.364 104.548 249.596C104.46 249.82 104.416 250.068 104.416 250.34V250.424H107.836V250.292C107.836 249.74 107.684 249.3 107.38 248.972C107.084 248.636 106.688 248.468 106.192 248.468Z" fill="#D8DADC"/>
<line x1="122" y1="248" x2="141" y2="248" stroke="#A6A6A6" stroke-width="2" stroke-dasharray="2 2"/>
<path d="M151.468 254.144C150.788 254.144 150.208 254.016 149.728 253.76C149.248 253.496 148.84 253.136 148.504 252.68L149.248 252.056C149.544 252.448 149.872 252.748 150.232 252.956C150.592 253.156 151.016 253.256 151.504 253.256C152.104 253.256 152.56 253.112 152.872 252.824C153.192 252.536 153.352 252.152 153.352 251.672C153.352 251.272 153.232 250.964 152.992 250.748C152.752 250.532 152.356 250.36 151.804 250.232L151.12 250.076C150.352 249.9 149.764 249.636 149.356 249.284C148.956 248.924 148.756 248.42 148.756 247.772C148.756 247.404 148.824 247.076 148.96 246.788C149.096 246.5 149.284 246.26 149.524 246.068C149.772 245.876 150.064 245.732 150.4 245.636C150.744 245.532 151.12 245.48 151.528 245.48C152.16 245.48 152.7 245.596 153.148 245.828C153.604 246.06 153.988 246.4 154.3 246.848L153.544 247.4C153.312 247.08 153.032 246.828 152.704 246.644C152.376 246.46 151.968 246.368 151.48 246.368C150.944 246.368 150.52 246.484 150.208 246.716C149.904 246.94 149.752 247.28 149.752 247.736C149.752 248.136 149.88 248.44 150.136 248.648C150.4 248.848 150.796 249.008 151.324 249.128L152.008 249.284C152.832 249.468 153.428 249.748 153.796 250.124C154.164 250.5 154.348 251 154.348 251.624C154.348 252.008 154.28 252.356 154.144 252.668C154.016 252.98 153.828 253.244 153.58 253.46C153.332 253.676 153.028 253.844 152.668 253.964C152.316 254.084 151.916 254.144 151.468 254.144ZM157.361 254C157.025 254 156.769 253.908 156.593 253.724C156.425 253.532 156.341 253.284 156.341 252.98V248.648H155.321V247.808H155.897C156.105 247.808 156.245 247.768 156.317 247.688C156.397 247.6 156.437 247.452 156.437 247.244V246.092H157.301V247.808H158.657V248.648H157.301V253.16H158.561V254H157.361ZM160.2 254V247.808H161.16V248.948H161.22C161.332 248.652 161.532 248.388 161.82 248.156C162.108 247.924 162.504 247.808 163.008 247.808H163.38V248.768H162.816C162.296 248.768 161.888 248.868 161.592 249.068C161.304 249.26 161.16 249.504 161.16 249.8V254H160.2ZM169.059 254C168.699 254 168.439 253.904 168.279 253.712C168.127 253.52 168.031 253.28 167.991 252.992H167.931C167.795 253.376 167.571 253.664 167.259 253.856C166.947 254.048 166.575 254.144 166.143 254.144C165.487 254.144 164.975 253.976 164.607 253.64C164.247 253.304 164.067 252.848 164.067 252.272C164.067 251.688 164.279 251.24 164.703 250.928C165.135 250.616 165.803 250.46 166.707 250.46H167.931V249.848C167.931 249.408 167.811 249.072 167.571 248.84C167.331 248.608 166.963 248.492 166.467 248.492C166.091 248.492 165.775 248.576 165.519 248.744C165.271 248.912 165.063 249.136 164.895 249.416L164.319 248.876C164.487 248.54 164.755 248.256 165.123 248.024C165.491 247.784 165.955 247.664 166.515 247.664C167.267 247.664 167.851 247.848 168.267 248.216C168.683 248.584 168.891 249.096 168.891 249.752V253.16H169.599V254H169.059ZM166.299 253.328C166.539 253.328 166.759 253.3 166.959 253.244C167.159 253.188 167.331 253.108 167.475 253.004C167.619 252.9 167.731 252.78 167.811 252.644C167.891 252.508 167.931 252.36 167.931 252.2V251.18H166.659C166.107 251.18 165.703 251.26 165.447 251.42C165.199 251.58 165.075 251.812 165.075 252.116V252.368C165.075 252.672 165.183 252.908 165.399 253.076C165.623 253.244 165.923 253.328 166.299 253.328ZM172.337 254C172.001 254 171.745 253.908 171.569 253.724C171.401 253.532 171.317 253.284 171.317 252.98V248.648H170.297V247.808H170.873C171.081 247.808 171.221 247.768 171.293 247.688C171.373 247.6 171.413 247.452 171.413 247.244V246.092H172.277V247.808H173.633V248.648H172.277V253.16H173.537V254H172.337ZM177.457 254.144C177.033 254.144 176.649 254.068 176.305 253.916C175.969 253.764 175.677 253.548 175.429 253.268C175.189 252.98 175.001 252.64 174.865 252.248C174.737 251.848 174.673 251.4 174.673 250.904C174.673 250.416 174.737 249.972 174.865 249.572C175.001 249.172 175.189 248.832 175.429 248.552C175.677 248.264 175.969 248.044 176.305 247.892C176.649 247.74 177.033 247.664 177.457 247.664C177.873 247.664 178.245 247.74 178.573 247.892C178.901 248.044 179.181 248.256 179.413 248.528C179.645 248.792 179.821 249.108 179.941 249.476C180.069 249.844 180.133 250.248 180.133 250.688V251.144H175.681V251.432C175.681 251.696 175.721 251.944 175.801 252.176C175.889 252.4 176.009 252.596 176.161 252.764C176.321 252.932 176.513 253.064 176.737 253.16C176.969 253.256 177.229 253.304 177.517 253.304C177.909 253.304 178.249 253.212 178.537 253.028C178.833 252.844 179.061 252.58 179.221 252.236L179.905 252.728C179.705 253.152 179.393 253.496 178.969 253.76C178.545 254.016 178.041 254.144 177.457 254.144ZM177.457 248.468C177.193 248.468 176.953 248.516 176.737 248.612C176.521 248.7 176.333 248.828 176.173 248.996C176.021 249.164 175.901 249.364 175.813 249.596C175.725 249.82 175.681 250.068 175.681 250.34V250.424H179.101V250.292C179.101 249.74 178.949 249.3 178.645 248.972C178.349 248.636 177.953 248.468 177.457 248.468ZM186.935 254.684C186.935 255.324 186.683 255.792 186.179 256.088C185.683 256.392 184.935 256.544 183.935 256.544C182.967 256.544 182.271 256.412 181.847 256.148C181.423 255.884 181.211 255.508 181.211 255.02C181.211 254.684 181.299 254.42 181.475 254.228C181.651 254.044 181.891 253.908 182.195 253.82V253.688C181.827 253.512 181.643 253.224 181.643 252.824C181.643 252.512 181.743 252.276 181.943 252.116C182.143 251.948 182.399 251.824 182.711 251.744V251.696C182.343 251.52 182.055 251.268 181.847 250.94C181.647 250.612 181.547 250.232 181.547 249.8C181.547 249.488 181.603 249.2 181.715 248.936C181.827 248.672 181.983 248.448 182.183 248.264C182.391 248.072 182.635 247.924 182.915 247.82C183.203 247.716 183.523 247.664 183.875 247.664C184.315 247.664 184.707 247.744 185.051 247.904V247.796C185.051 247.556 185.107 247.36 185.219 247.208C185.331 247.048 185.515 246.968 185.771 246.968H186.695V247.808H185.519V248.204C185.743 248.396 185.915 248.628 186.035 248.9C186.163 249.164 186.227 249.464 186.227 249.8C186.227 250.112 186.171 250.4 186.059 250.664C185.947 250.928 185.787 251.156 185.579 251.348C185.379 251.532 185.135 251.676 184.847 251.78C184.559 251.884 184.239 251.936 183.887 251.936C183.687 251.936 183.487 251.916 183.287 251.876C183.079 251.932 182.891 252.016 182.723 252.128C182.555 252.232 182.471 252.38 182.471 252.572C182.471 252.756 182.559 252.88 182.735 252.944C182.911 253.008 183.139 253.04 183.419 253.04H184.739C185.507 253.04 186.063 253.188 186.407 253.484C186.759 253.772 186.935 254.172 186.935 254.684ZM186.035 254.756C186.035 254.508 185.939 254.308 185.747 254.156C185.563 254.012 185.231 253.94 184.751 253.94H182.687C182.303 254.116 182.111 254.396 182.111 254.78C182.111 255.052 182.211 255.284 182.411 255.476C182.619 255.668 182.967 255.764 183.455 255.764H184.343C184.879 255.764 185.295 255.68 185.591 255.512C185.887 255.344 186.035 255.092 186.035 254.756ZM183.887 251.168C184.295 251.168 184.619 251.072 184.859 250.88C185.099 250.68 185.219 250.376 185.219 249.968V249.632C185.219 249.224 185.099 248.924 184.859 248.732C184.619 248.532 184.295 248.432 183.887 248.432C183.479 248.432 183.155 248.532 182.915 248.732C182.675 248.924 182.555 249.224 182.555 249.632V249.968C182.555 250.376 182.675 250.68 182.915 250.88C183.155 251.072 183.479 251.168 183.887 251.168ZM191.93 247.808H192.878L190.106 255.44C190.034 255.624 189.962 255.776 189.89 255.896C189.818 256.024 189.73 256.124 189.626 256.196C189.522 256.268 189.39 256.32 189.23 256.352C189.078 256.384 188.89 256.4 188.666 256.4H188.174V255.56H189.146L189.614 254.24L187.298 247.808H188.258L189.746 252.02L190.034 253.028H190.094L190.43 252.02L191.93 247.808ZM198.042 254H197.034V245.624H200.37C201.106 245.624 201.678 245.828 202.086 246.236C202.502 246.644 202.71 247.232 202.71 248C202.71 248.616 202.566 249.124 202.278 249.524C201.998 249.916 201.582 250.176 201.03 250.304L202.95 254H201.81L199.998 250.4H198.042V254ZM200.37 249.536C200.77 249.536 201.078 249.432 201.294 249.224C201.518 249.016 201.63 248.72 201.63 248.336V247.712C201.63 247.328 201.518 247.032 201.294 246.824C201.078 246.616 200.77 246.512 200.37 246.512H198.042V249.536H200.37ZM206.766 254.144C206.342 254.144 205.958 254.068 205.614 253.916C205.278 253.764 204.986 253.548 204.738 253.268C204.498 252.98 204.31 252.64 204.174 252.248C204.046 251.848 203.982 251.4 203.982 250.904C203.982 250.416 204.046 249.972 204.174 249.572C204.31 249.172 204.498 248.832 204.738 248.552C204.986 248.264 205.278 248.044 205.614 247.892C205.958 247.74 206.342 247.664 206.766 247.664C207.182 247.664 207.554 247.74 207.882 247.892C208.21 248.044 208.49 248.256 208.722 248.528C208.954 248.792 209.13 249.108 209.25 249.476C209.378 249.844 209.442 250.248 209.442 250.688V251.144H204.99V251.432C204.99 251.696 205.03 251.944 205.11 252.176C205.198 252.4 205.318 252.596 205.47 252.764C205.63 252.932 205.822 253.064 206.046 253.16C206.278 253.256 206.538 253.304 206.826 253.304C207.218 253.304 207.558 253.212 207.846 253.028C208.142 252.844 208.37 252.58 208.53 252.236L209.214 252.728C209.014 253.152 208.702 253.496 208.278 253.76C207.854 254.016 207.35 254.144 206.766 254.144ZM206.766 248.468C206.502 248.468 206.262 248.516 206.046 248.612C205.83 248.7 205.642 248.828 205.482 248.996C205.33 249.164 205.21 249.364 205.122 249.596C205.034 249.82 204.99 250.068 204.99 250.34V250.424H208.41V250.292C208.41 249.74 208.258 249.3 207.954 248.972C207.658 248.636 207.262 248.468 206.766 248.468ZM212.884 254.144C212.308 254.144 211.824 254.036 211.432 253.82C211.048 253.596 210.716 253.3 210.436 252.932L211.12 252.38C211.36 252.684 211.628 252.92 211.924 253.088C212.22 253.248 212.564 253.328 212.956 253.328C213.364 253.328 213.68 253.24 213.904 253.064C214.136 252.888 214.252 252.64 214.252 252.32C214.252 252.08 214.172 251.876 214.012 251.708C213.86 251.532 213.58 251.412 213.172 251.348L212.68 251.276C212.392 251.236 212.128 251.176 211.888 251.096C211.648 251.008 211.436 250.896 211.252 250.76C211.076 250.616 210.936 250.44 210.832 250.232C210.736 250.024 210.688 249.776 210.688 249.488C210.688 249.184 210.744 248.92 210.856 248.696C210.968 248.464 211.12 248.272 211.312 248.12C211.512 247.968 211.748 247.856 212.02 247.784C212.292 247.704 212.584 247.664 212.896 247.664C213.4 247.664 213.82 247.752 214.156 247.928C214.5 248.104 214.8 248.348 215.056 248.66L214.42 249.236C214.284 249.044 214.084 248.872 213.82 248.72C213.556 248.56 213.224 248.48 212.824 248.48C212.424 248.48 212.12 248.568 211.912 248.744C211.712 248.912 211.612 249.144 211.612 249.44C211.612 249.744 211.712 249.964 211.912 250.1C212.12 250.236 212.416 250.336 212.8 250.4L213.28 250.472C213.968 250.576 214.456 250.776 214.744 251.072C215.032 251.36 215.176 251.74 215.176 252.212C215.176 252.812 214.972 253.284 214.564 253.628C214.156 253.972 213.596 254.144 212.884 254.144ZM219.2 254.144C218.776 254.144 218.392 254.068 218.048 253.916C217.712 253.764 217.42 253.548 217.172 253.268C216.932 252.98 216.744 252.64 216.608 252.248C216.48 251.848 216.416 251.4 216.416 250.904C216.416 250.416 216.48 249.972 216.608 249.572C216.744 249.172 216.932 248.832 217.172 248.552C217.42 248.264 217.712 248.044 218.048 247.892C218.392 247.74 218.776 247.664 219.2 247.664C219.616 247.664 219.988 247.74 220.316 247.892C220.644 248.044 220.924 248.256 221.156 248.528C221.388 248.792 221.564 249.108 221.684 249.476C221.812 249.844 221.876 250.248 221.876 250.688V251.144H217.424V251.432C217.424 251.696 217.464 251.944 217.544 252.176C217.632 252.4 217.752 252.596 217.904 252.764C218.064 252.932 218.256 253.064 218.48 253.16C218.712 253.256 218.972 253.304 219.26 253.304C219.652 253.304 219.992 253.212 220.28 253.028C220.576 252.844 220.804 252.58 220.964 252.236L221.648 252.728C221.448 253.152 221.136 253.496 220.712 253.76C220.288 254.016 219.784 254.144 219.2 254.144ZM219.2 248.468C218.936 248.468 218.696 248.516 218.48 248.612C218.264 248.7 218.076 248.828 217.916 248.996C217.764 249.164 217.644 249.364 217.556 249.596C217.468 249.82 217.424 250.068 217.424 250.34V250.424H220.844V250.292C220.844 249.74 220.692 249.3 220.388 248.972C220.092 248.636 219.696 248.468 219.2 248.468ZM224.826 254C224.49 254 224.234 253.908 224.058 253.724C223.89 253.532 223.806 253.284 223.806 252.98V248.648H222.786V247.808H223.362C223.57 247.808 223.71 247.768 223.782 247.688C223.862 247.6 223.902 247.452 223.902 247.244V246.092H224.766V247.808H226.122V248.648H224.766V253.16H226.026V254H224.826ZM230.596 245.624H234.04C234.736 245.624 235.28 245.82 235.672 246.212C236.072 246.604 236.272 247.128 236.272 247.784C236.272 248.096 236.228 248.36 236.14 248.576C236.052 248.792 235.94 248.972 235.804 249.116C235.668 249.252 235.52 249.356 235.36 249.428C235.2 249.492 235.052 249.536 234.916 249.56V249.632C235.068 249.64 235.236 249.68 235.42 249.752C235.612 249.824 235.792 249.94 235.96 250.1C236.128 250.252 236.268 250.452 236.38 250.7C236.5 250.94 236.56 251.232 236.56 251.576C236.56 251.92 236.504 252.24 236.392 252.536C236.288 252.832 236.14 253.088 235.948 253.304C235.756 253.52 235.528 253.692 235.264 253.82C235 253.94 234.712 254 234.4 254H230.596V245.624ZM231.604 253.112H234.088C234.52 253.112 234.86 253.004 235.108 252.788C235.356 252.564 235.48 252.24 235.48 251.816V251.408C235.48 250.984 235.356 250.664 235.108 250.448C234.86 250.224 234.52 250.112 234.088 250.112H231.604V253.112ZM231.604 249.248H233.92C234.32 249.248 234.632 249.148 234.856 248.948C235.08 248.748 235.192 248.46 235.192 248.084V247.676C235.192 247.3 235.08 247.012 234.856 246.812C234.632 246.612 234.32 246.512 233.92 246.512H231.604V249.248ZM240.68 254.144C240.264 254.144 239.884 254.068 239.54 253.916C239.196 253.764 238.9 253.548 238.652 253.268C238.412 252.98 238.224 252.64 238.088 252.248C237.952 251.848 237.884 251.4 237.884 250.904C237.884 250.416 237.952 249.972 238.088 249.572C238.224 249.172 238.412 248.832 238.652 248.552C238.9 248.264 239.196 248.044 239.54 247.892C239.884 247.74 240.264 247.664 240.68 247.664C241.096 247.664 241.472 247.74 241.808 247.892C242.152 248.044 242.448 248.264 242.696 248.552C242.944 248.832 243.136 249.172 243.272 249.572C243.408 249.972 243.476 250.416 243.476 250.904C243.476 251.4 243.408 251.848 243.272 252.248C243.136 252.64 242.944 252.98 242.696 253.268C242.448 253.548 242.152 253.764 241.808 253.916C241.472 254.068 241.096 254.144 240.68 254.144ZM240.68 253.292C241.2 253.292 241.624 253.132 241.952 252.812C242.28 252.492 242.444 252.004 242.444 251.348V250.46C242.444 249.804 242.28 249.316 241.952 248.996C241.624 248.676 241.2 248.516 240.68 248.516C240.16 248.516 239.736 248.676 239.408 248.996C239.08 249.316 238.916 249.804 238.916 250.46V251.348C238.916 252.004 239.08 252.492 239.408 252.812C239.736 253.132 240.16 253.292 240.68 253.292ZM248.871 252.992H248.823C248.759 253.136 248.679 253.28 248.583 253.424C248.495 253.56 248.383 253.684 248.247 253.796C248.111 253.9 247.947 253.984 247.755 254.048C247.563 254.112 247.339 254.144 247.083 254.144C246.443 254.144 245.935 253.94 245.559 253.532C245.183 253.116 244.995 252.532 244.995 251.78V247.808H245.955V251.612C245.955 252.724 246.427 253.28 247.371 253.28C247.563 253.28 247.747 253.256 247.923 253.208C248.107 253.16 248.267 253.088 248.403 252.992C248.547 252.896 248.659 252.776 248.739 252.632C248.827 252.48 248.871 252.3 248.871 252.092V247.808H249.831V254H248.871V252.992ZM251.875 254V247.808H252.835V248.816H252.883C253.035 248.464 253.247 248.184 253.519 247.976C253.799 247.768 254.171 247.664 254.635 247.664C255.275 247.664 255.779 247.872 256.147 248.288C256.523 248.696 256.711 249.276 256.711 250.028V254H255.751V250.196C255.751 249.084 255.283 248.528 254.347 248.528C254.155 248.528 253.967 248.552 253.783 248.6C253.607 248.648 253.447 248.72 253.303 248.816C253.159 248.912 253.043 249.036 252.955 249.188C252.875 249.332 252.835 249.504 252.835 249.704V254H251.875ZM262.656 252.992H262.608C262.232 253.76 261.628 254.144 260.796 254.144C260.412 254.144 260.064 254.068 259.752 253.916C259.44 253.764 259.172 253.548 258.948 253.268C258.732 252.988 258.564 252.648 258.444 252.248C258.332 251.848 258.276 251.4 258.276 250.904C258.276 250.408 258.332 249.96 258.444 249.56C258.564 249.16 258.732 248.82 258.948 248.54C259.172 248.26 259.44 248.044 259.752 247.892C260.064 247.74 260.412 247.664 260.796 247.664C261.228 247.664 261.596 247.76 261.9 247.952C262.212 248.136 262.448 248.424 262.608 248.816H262.656V245.12H263.616V254H262.656V252.992ZM261.06 253.28C261.276 253.28 261.48 253.252 261.672 253.196C261.872 253.14 262.044 253.06 262.188 252.956C262.332 252.844 262.444 252.712 262.524 252.56C262.612 252.4 262.656 252.22 262.656 252.02V249.716C262.656 249.548 262.612 249.392 262.524 249.248C262.444 249.096 262.332 248.968 262.188 248.864C262.044 248.76 261.872 248.68 261.672 248.624C261.48 248.56 261.276 248.528 261.06 248.528C260.516 248.528 260.088 248.7 259.776 249.044C259.464 249.38 259.308 249.824 259.308 250.376V251.432C259.308 251.984 259.464 252.432 259.776 252.776C260.088 253.112 260.516 253.28 261.06 253.28Z" fill="#D8DADC"/>
<line x1="277" y1="248" x2="296" y2="248" stroke="#434343" stroke-width="2"/>
<path d="M304.116 254V245.624H307.452C308.204 245.624 308.78 245.84 309.18 246.272C309.588 246.696 309.792 247.28 309.792 248.024C309.792 248.768 309.588 249.356 309.18 249.788C308.78 250.212 308.204 250.424 307.452 250.424H305.124V254H304.116ZM305.124 249.536H307.452C307.852 249.536 308.16 249.432 308.376 249.224C308.6 249.016 308.712 248.72 308.712 248.336V247.712C308.712 247.328 308.6 247.032 308.376 246.824C308.16 246.616 307.852 246.512 307.452 246.512H305.124V249.536ZM311.18 254V247.808H312.14V248.948H312.2C312.312 248.652 312.512 248.388 312.8 248.156C313.088 247.924 313.484 247.808 313.988 247.808H314.36V248.768H313.796C313.276 248.768 312.868 248.868 312.572 249.068C312.284 249.26 312.14 249.504 312.14 249.8V254H311.18ZM316.066 246.356C315.858 246.356 315.706 246.308 315.61 246.212C315.522 246.108 315.478 245.976 315.478 245.816V245.66C315.478 245.5 315.522 245.372 315.61 245.276C315.706 245.172 315.858 245.12 316.066 245.12C316.274 245.12 316.422 245.172 316.51 245.276C316.606 245.372 316.654 245.5 316.654 245.66V245.816C316.654 245.976 316.606 246.108 316.51 246.212C316.422 246.308 316.274 246.356 316.066 246.356ZM315.586 247.808H316.546V254H315.586V247.808ZM320.89 254.144C320.458 254.144 320.07 254.068 319.726 253.916C319.382 253.764 319.09 253.548 318.85 253.268C318.618 252.988 318.438 252.648 318.31 252.248C318.19 251.848 318.13 251.4 318.13 250.904C318.13 250.408 318.19 249.96 318.31 249.56C318.438 249.16 318.618 248.82 318.85 248.54C319.09 248.26 319.382 248.044 319.726 247.892C320.07 247.74 320.458 247.664 320.89 247.664C321.506 247.664 321.998 247.8 322.366 248.072C322.742 248.336 323.022 248.684 323.206 249.116L322.402 249.524C322.29 249.204 322.106 248.956 321.85 248.78C321.594 248.604 321.274 248.516 320.89 248.516C320.602 248.516 320.35 248.564 320.134 248.66C319.918 248.748 319.738 248.876 319.594 249.044C319.45 249.204 319.342 249.4 319.27 249.632C319.198 249.856 319.162 250.104 319.162 250.376V251.432C319.162 251.976 319.306 252.424 319.594 252.776C319.89 253.12 320.322 253.292 320.89 253.292C321.666 253.292 322.226 252.932 322.57 252.212L323.266 252.68C323.066 253.128 322.766 253.484 322.366 253.748C321.974 254.012 321.482 254.144 320.89 254.144ZM326.879 254.144C326.455 254.144 326.071 254.068 325.727 253.916C325.391 253.764 325.099 253.548 324.851 253.268C324.611 252.98 324.423 252.64 324.287 252.248C324.159 251.848 324.095 251.4 324.095 250.904C324.095 250.416 324.159 249.972 324.287 249.572C324.423 249.172 324.611 248.832 324.851 248.552C325.099 248.264 325.391 248.044 325.727 247.892C326.071 247.74 326.455 247.664 326.879 247.664C327.295 247.664 327.667 247.74 327.995 247.892C328.323 248.044 328.603 248.256 328.835 248.528C329.067 248.792 329.243 249.108 329.363 249.476C329.491 249.844 329.555 250.248 329.555 250.688V251.144H325.103V251.432C325.103 251.696 325.143 251.944 325.223 252.176C325.311 252.4 325.431 252.596 325.583 252.764C325.743 252.932 325.935 253.064 326.159 253.16C326.391 253.256 326.651 253.304 326.939 253.304C327.331 253.304 327.671 253.212 327.959 253.028C328.255 252.844 328.483 252.58 328.643 252.236L329.327 252.728C329.127 253.152 328.815 253.496 328.391 253.76C327.967 254.016 327.463 254.144 326.879 254.144ZM326.879 248.468C326.615 248.468 326.375 248.516 326.159 248.612C325.943 248.7 325.755 248.828 325.595 248.996C325.443 249.164 325.323 249.364 325.235 249.596C325.147 249.82 325.103 250.068 325.103 250.34V250.424H328.523V250.292C328.523 249.74 328.371 249.3 328.067 248.972C327.771 248.636 327.375 248.468 326.879 248.468ZM334.069 245.624H337.513C338.209 245.624 338.753 245.82 339.145 246.212C339.545 246.604 339.745 247.128 339.745 247.784C339.745 248.096 339.701 248.36 339.613 248.576C339.525 248.792 339.413 248.972 339.277 249.116C339.141 249.252 338.993 249.356 338.833 249.428C338.673 249.492 338.525 249.536 338.389 249.56V249.632C338.541 249.64 338.709 249.68 338.893 249.752C339.085 249.824 339.265 249.94 339.433 250.1C339.601 250.252 339.741 250.452 339.853 250.7C339.973 250.94 340.033 251.232 340.033 251.576C340.033 251.92 339.977 252.24 339.865 252.536C339.761 252.832 339.613 253.088 339.421 253.304C339.229 253.52 339.001 253.692 338.737 253.82C338.473 253.94 338.185 254 337.873 254H334.069V245.624ZM335.077 253.112H337.561C337.993 253.112 338.333 253.004 338.581 252.788C338.829 252.564 338.953 252.24 338.953 251.816V251.408C338.953 250.984 338.829 250.664 338.581 250.448C338.333 250.224 337.993 250.112 337.561 250.112H335.077V253.112ZM335.077 249.248H337.393C337.793 249.248 338.105 249.148 338.329 248.948C338.553 248.748 338.665 248.46 338.665 248.084V247.676C338.665 247.3 338.553 247.012 338.329 246.812C338.105 246.612 337.793 246.512 337.393 246.512H335.077V249.248ZM346.313 254C345.953 254 345.693 253.904 345.533 253.712C345.381 253.52 345.285 253.28 345.245 252.992H345.185C345.049 253.376 344.825 253.664 344.513 253.856C344.201 254.048 343.829 254.144 343.397 254.144C342.741 254.144 342.229 253.976 341.861 253.64C341.501 253.304 341.321 252.848 341.321 252.272C341.321 251.688 341.533 251.24 341.957 250.928C342.389 250.616 343.057 250.46 343.961 250.46H345.185V249.848C345.185 249.408 345.065 249.072 344.825 248.84C344.585 248.608 344.217 248.492 343.721 248.492C343.345 248.492 343.029 248.576 342.773 248.744C342.525 248.912 342.317 249.136 342.149 249.416L341.573 248.876C341.741 248.54 342.009 248.256 342.377 248.024C342.745 247.784 343.209 247.664 343.769 247.664C344.521 247.664 345.105 247.848 345.521 248.216C345.937 248.584 346.145 249.096 346.145 249.752V253.16H346.853V254H346.313ZM343.553 253.328C343.793 253.328 344.013 253.3 344.213 253.244C344.413 253.188 344.585 253.108 344.729 253.004C344.873 252.9 344.985 252.78 345.065 252.644C345.145 252.508 345.185 252.36 345.185 252.2V251.18H343.913C343.361 251.18 342.957 251.26 342.701 251.42C342.453 251.58 342.329 251.812 342.329 252.116V252.368C342.329 252.672 342.437 252.908 342.653 253.076C342.877 253.244 343.177 253.328 343.553 253.328ZM348.223 254V247.808H349.183V248.816H349.231C349.383 248.464 349.595 248.184 349.867 247.976C350.147 247.768 350.519 247.664 350.983 247.664C351.623 247.664 352.127 247.872 352.495 248.288C352.871 248.696 353.059 249.276 353.059 250.028V254H352.099V250.196C352.099 249.084 351.631 248.528 350.695 248.528C350.503 248.528 350.315 248.552 350.131 248.6C349.955 248.648 349.795 248.72 349.651 248.816C349.507 248.912 349.391 249.036 349.303 249.188C349.223 249.332 349.183 249.504 349.183 249.704V254H348.223ZM359.003 252.992H358.955C358.579 253.76 357.975 254.144 357.143 254.144C356.759 254.144 356.411 254.068 356.099 253.916C355.787 253.764 355.519 253.548 355.295 253.268C355.079 252.988 354.911 252.648 354.791 252.248C354.679 251.848 354.623 251.4 354.623 250.904C354.623 250.408 354.679 249.96 354.791 249.56C354.911 249.16 355.079 248.82 355.295 248.54C355.519 248.26 355.787 248.044 356.099 247.892C356.411 247.74 356.759 247.664 357.143 247.664C357.575 247.664 357.943 247.76 358.247 247.952C358.559 248.136 358.795 248.424 358.955 248.816H359.003V245.12H359.963V254H359.003V252.992ZM357.407 253.28C357.623 253.28 357.827 253.252 358.019 253.196C358.219 253.14 358.391 253.06 358.535 252.956C358.679 252.844 358.791 252.712 358.871 252.56C358.959 252.4 359.003 252.22 359.003 252.02V249.716C359.003 249.548 358.959 249.392 358.871 249.248C358.791 249.096 358.679 248.968 358.535 248.864C358.391 248.76 358.219 248.68 358.019 248.624C357.827 248.56 357.623 248.528 357.407 248.528C356.863 248.528 356.435 248.7 356.123 249.044C355.811 249.38 355.655 249.824 355.655 250.376V251.432C355.655 251.984 355.811 252.432 356.123 252.776C356.435 253.112 356.863 253.28 357.407 253.28ZM363.864 254.144C363.288 254.144 362.804 254.036 362.412 253.82C362.028 253.596 361.696 253.3 361.416 252.932L362.1 252.38C362.34 252.684 362.608 252.92 362.904 253.088C363.2 253.248 363.544 253.328 363.936 253.328C364.344 253.328 364.66 253.24 364.884 253.064C365.116 252.888 365.232 252.64 365.232 252.32C365.232 252.08 365.152 251.876 364.992 251.708C364.84 251.532 364.56 251.412 364.152 251.348L363.66 251.276C363.372 251.236 363.108 251.176 362.868 251.096C362.628 251.008 362.416 250.896 362.232 250.76C362.056 250.616 361.916 250.44 361.812 250.232C361.716 250.024 361.668 249.776 361.668 249.488C361.668 249.184 361.724 248.92 361.836 248.696C361.948 248.464 362.1 248.272 362.292 248.12C362.492 247.968 362.728 247.856 363 247.784C363.272 247.704 363.564 247.664 363.876 247.664C364.38 247.664 364.8 247.752 365.136 247.928C365.48 248.104 365.78 248.348 366.036 248.66L365.4 249.236C365.264 249.044 365.064 248.872 364.8 248.72C364.536 248.56 364.204 248.48 363.804 248.48C363.404 248.48 363.1 248.568 362.892 248.744C362.692 248.912 362.592 249.144 362.592 249.44C362.592 249.744 362.692 249.964 362.892 250.1C363.1 250.236 363.396 250.336 363.78 250.4L364.26 250.472C364.948 250.576 365.436 250.776 365.724 251.072C366.012 251.36 366.156 251.74 366.156 252.212C366.156 252.812 365.952 253.284 365.544 253.628C365.136 253.972 364.576 254.144 363.864 254.144Z" fill="#D8DADC"/>
<path d="M3 127.796C6.10973 127.575 8.09088 125.289 10.2251 124.194C14.857 121.819 13.9554 124.179 18.3534 123.622C19.9235 123.424 22.3721 121.72 23.8726 122.765C27.8137 125.509 26.8885 124.004 32.5026 121.507C34.7428 120.511 40.9225 121.411 43.1396 122.422C45.3621 123.435 58.6103 123.68 61.7042 123.68C65.2047 123.68 67.2413 124.344 69.8325 125.738C73.9954 127.978 76.1626 126.883 80.6702 128.025C87.0505 129.64 93.2759 126.767 99.6361 126.767C102.226 126.767 103.808 128.058 105.557 129.054C108.842 130.925 111.56 126.065 114.588 128.825C116.367 130.447 122.998 135 126.73 135C136.659 135 135.755 127.906 139.374 124.194C142.772 120.71 148.237 120.592 154.728 120.592C158.065 120.592 159.799 120.602 161.953 122.136C164.601 124.022 167.429 121.263 169.981 121.679C176.372 122.719 178.194 124.899 183.628 126.538C189.387 128.275 198.002 128.5 203.096 131.112C210.232 134.771 218.586 130.11 224.27 128.311C229.376 126.694 237.24 125.928 243.236 125.738C251.953 125.462 252.893 129.854 262.302 129.854C268.472 129.854 273.826 127.849 278.458 125.738C280.896 124.627 282.037 123.341 284.78 122.422C286.095 121.981 286.561 120.33 288.393 120.821C289.629 121.153 291.818 123.057 293.41 122.422C298.256 120.489 301.855 116.632 304.649 113.846C307.831 110.674 319.856 113.326 320.906 108.243C321.395 105.872 330.774 103.718 334.453 104.183C340.962 105.008 338.183 106.496 344.789 104.126C351.327 101.781 353.776 103.737 357.834 106.185C362.384 108.929 371.363 108.863 377.904 108.186C386.699 107.275 393.113 106.185 402.188 106.185C411.5 106.185 419.945 106.388 428.881 106.185C436.276 106.016 445.97 106.63 452.764 108.243C459.654 109.878 479.445 114.4 486.682 111.101C491.165 109.058 502.038 110.301 507.756 110.301C513.802 110.301 519.368 109.272 525.016 109.272C534.379 109.272 544.516 109.877 553.816 109.215C557.391 108.96 562.449 108.029 564.353 106.185C566.74 103.872 578.047 105.155 582.415 105.155C595.245 105.155 608.499 108.091 620.849 106.642C626.164 106.019 632.085 105.253 636.202 103.097C638.289 102.005 639.229 100.111 642.424 100.01C647.971 99.8343 653.332 102.068 659.483 102.068C672.23 102.068 681.441 101.931 693 104.126" stroke="#A6A6A6" stroke-width="0.5" stroke-linecap="round"/>
<path d="M301.823 89.1768C301.921 89.2744 302.079 89.2744 302.177 89.1768L303.768 87.5858C303.865 87.4882 303.865 87.3299 303.768 87.2322C303.67 87.1346 303.512 87.1346 303.414 87.2322L302 88.6464L300.586 87.2322C300.488 87.1346 300.33 87.1346 300.232 87.2322C300.135 87.3299 300.135 87.4882 300.232 87.5858L301.823 89.1768ZM301.75 69L301.75 70L302.25 70L302.25 69L301.75 69ZM301.75 72L301.75 74L302.25 74L302.25 72L301.75 72ZM301.75 76L301.75 78L302.25 78L302.25 76L301.75 76ZM301.75 80L301.75 82L302.25 82L302.25 80L301.75 80ZM301.75 84L301.75 86L302.25 86L302.25 84L301.75 84ZM301.75 88L301.75 89L302.25 89L302.25 88L301.75 88Z" fill="#F4F4F4"/>
<path d="M266.59 65H265.99V58.02H268.73C269.33 58.02 269.79 58.19 270.11 58.53C270.437 58.87 270.6 59.3467 270.6 59.96C270.6 60.5 270.467 60.9367 270.2 61.27C269.94 61.6033 269.56 61.8033 269.06 61.87L270.78 65H270.11L268.44 61.91H266.59V65ZM268.73 61.4C269.13 61.4 269.433 61.29 269.64 61.07C269.853 60.8433 269.96 60.5567 269.96 60.21V59.73C269.96 59.39 269.853 59.11 269.64 58.89C269.433 58.6633 269.13 58.55 268.73 58.55H266.59V61.4H268.73ZM273.971 65.12C273.631 65.12 273.321 65.06 273.041 64.94C272.768 64.82 272.531 64.6467 272.331 64.42C272.138 64.1867 271.988 63.9033 271.881 63.57C271.781 63.2367 271.731 62.86 271.731 62.44C271.731 62.02 271.781 61.6467 271.881 61.32C271.988 60.9867 272.138 60.7067 272.331 60.48C272.531 60.2467 272.768 60.07 273.041 59.95C273.314 59.8233 273.621 59.76 273.961 59.76C274.288 59.76 274.584 59.8233 274.851 59.95C275.118 60.07 275.344 60.24 275.531 60.46C275.718 60.68 275.861 60.9467 275.961 61.26C276.068 61.5667 276.121 61.9067 276.121 62.28V62.55H272.331V62.8C272.331 63.0667 272.368 63.3133 272.441 63.54C272.521 63.76 272.631 63.95 272.771 64.11C272.918 64.27 273.094 64.3967 273.301 64.49C273.508 64.5767 273.741 64.62 274.001 64.62C274.748 64.62 275.264 64.2767 275.551 63.59L275.971 63.87C275.811 64.25 275.558 64.5533 275.211 64.78C274.871 65.0067 274.458 65.12 273.971 65.12ZM273.961 60.24C273.714 60.24 273.491 60.2867 273.291 60.38C273.091 60.4667 272.918 60.59 272.771 60.75C272.631 60.91 272.521 61.1033 272.441 61.33C272.368 61.55 272.331 61.7933 272.331 62.06V62.11H275.501V62.03C275.501 61.7633 275.464 61.52 275.391 61.3C275.318 61.0733 275.211 60.8833 275.071 60.73C274.938 60.5767 274.774 60.4567 274.581 60.37C274.394 60.2833 274.188 60.24 273.961 60.24ZM277.571 57.6H278.141V60.7H278.171C278.297 60.4133 278.491 60.1867 278.751 60.02C279.011 59.8467 279.337 59.76 279.731 59.76C280.391 59.76 280.907 59.9933 281.281 60.46C281.654 60.9267 281.841 61.5867 281.841 62.44C281.841 63.2933 281.654 63.9533 281.281 64.42C280.907 64.8867 280.391 65.12 279.731 65.12C279.337 65.12 279.014 65.0367 278.761 64.87C278.507 64.6967 278.311 64.4667 278.171 64.18H278.141V65H277.571V57.6ZM279.601 64.61C280.114 64.61 280.514 64.4467 280.801 64.12C281.087 63.7933 281.231 63.3533 281.231 62.8V62.08C281.231 61.5267 281.087 61.0867 280.801 60.76C280.514 60.4333 280.114 60.27 279.601 60.27C279.401 60.27 279.211 60.3 279.031 60.36C278.857 60.4133 278.704 60.49 278.571 60.59C278.437 60.69 278.331 60.81 278.251 60.95C278.177 61.09 278.141 61.2433 278.141 61.41V63.44C278.141 63.62 278.177 63.7833 278.251 63.93C278.331 64.07 278.437 64.1933 278.571 64.3C278.704 64.4 278.857 64.4767 279.031 64.53C279.211 64.5833 279.401 64.61 279.601 64.61ZM286.833 65C286.613 65 286.453 64.9433 286.353 64.83C286.253 64.7167 286.196 64.5633 286.183 64.37V64.19H286.133C286.019 64.4767 285.833 64.7033 285.573 64.87C285.313 65.0367 284.983 65.12 284.583 65.12C284.043 65.12 283.626 64.99 283.333 64.73C283.039 64.4633 282.893 64.09 282.893 63.61C282.893 63.1567 283.053 62.7967 283.373 62.53C283.699 62.2633 284.233 62.13 284.973 62.13H286.153V61.53C286.153 60.6833 285.716 60.26 284.843 60.26C284.503 60.26 284.219 60.3333 283.993 60.48C283.766 60.62 283.583 60.8233 283.443 61.09L283.083 60.79C283.223 60.49 283.436 60.2433 283.723 60.05C284.016 59.8567 284.396 59.76 284.863 59.76C285.463 59.76 285.923 59.91 286.243 60.21C286.563 60.51 286.723 60.93 286.723 61.47V64.5H287.413V65H286.833ZM284.663 64.63C284.869 64.63 285.063 64.6033 285.243 64.55C285.423 64.4967 285.579 64.4233 285.713 64.33C285.853 64.23 285.959 64.1133 286.033 63.98C286.113 63.84 286.153 63.6833 286.153 63.51V62.56H284.953C284.439 62.56 284.066 62.6433 283.833 62.81C283.606 62.97 283.493 63.1933 283.493 63.48V63.72C283.493 64.02 283.599 64.2467 283.813 64.4C284.026 64.5533 284.309 64.63 284.663 64.63ZM289.216 65C289.01 65 288.853 64.9433 288.746 64.83C288.64 64.7167 288.586 64.5667 288.586 64.38V57.6H289.156V64.5H289.946V65H289.216ZM294.743 65C294.523 65 294.363 64.9433 294.263 64.83C294.163 64.7167 294.106 64.5633 294.093 64.37V64.19H294.043C293.93 64.4767 293.743 64.7033 293.483 64.87C293.223 65.0367 292.893 65.12 292.493 65.12C291.953 65.12 291.536 64.99 291.243 64.73C290.95 64.4633 290.803 64.09 290.803 63.61C290.803 63.1567 290.963 62.7967 291.283 62.53C291.61 62.2633 292.143 62.13 292.883 62.13H294.063V61.53C294.063 60.6833 293.626 60.26 292.753 60.26C292.413 60.26 292.13 60.3333 291.903 60.48C291.676 60.62 291.493 60.8233 291.353 61.09L290.993 60.79C291.133 60.49 291.346 60.2433 291.633 60.05C291.926 59.8567 292.306 59.76 292.773 59.76C293.373 59.76 293.833 59.91 294.153 60.21C294.473 60.51 294.633 60.93 294.633 61.47V64.5H295.323V65H294.743ZM292.573 64.63C292.78 64.63 292.973 64.6033 293.153 64.55C293.333 64.4967 293.49 64.4233 293.623 64.33C293.763 64.23 293.87 64.1133 293.943 63.98C294.023 63.84 294.063 63.6833 294.063 63.51V62.56H292.863C292.35 62.56 291.976 62.6433 291.743 62.81C291.516 62.97 291.403 63.1933 291.403 63.48V63.72C291.403 64.02 291.51 64.2467 291.723 64.4C291.936 64.5533 292.22 64.63 292.573 64.63ZM296.496 65V59.88H297.066V60.69H297.096C297.21 60.4233 297.386 60.2033 297.626 60.03C297.866 59.85 298.193 59.76 298.606 59.76C299.153 59.76 299.576 59.93 299.876 60.27C300.183 60.6033 300.336 61.0833 300.336 61.71V65H299.766V61.81C299.766 61.29 299.653 60.9033 299.426 60.65C299.206 60.3967 298.883 60.27 298.456 60.27C298.276 60.27 298.103 60.2933 297.936 60.34C297.77 60.3867 297.62 60.4567 297.486 60.55C297.36 60.6433 297.256 60.7633 297.176 60.91C297.103 61.05 297.066 61.2133 297.066 61.4V65H296.496ZM303.931 65.12C303.225 65.12 302.678 64.8867 302.291 64.42C301.911 63.9533 301.721 63.2933 301.721 62.44C301.721 61.5867 301.911 60.9267 302.291 60.46C302.678 59.9933 303.225 59.76 303.931 59.76C304.405 59.76 304.788 59.8633 305.081 60.07C305.375 60.2767 305.598 60.55 305.751 60.89L305.271 61.13C305.151 60.85 304.981 60.6367 304.761 60.49C304.548 60.3433 304.271 60.27 303.931 60.27C303.411 60.27 303.015 60.4367 302.741 60.77C302.468 61.1033 302.331 61.54 302.331 62.08V62.8C302.331 63.34 302.468 63.7767 302.741 64.11C303.015 64.4433 303.411 64.61 303.931 64.61C304.285 64.61 304.581 64.5333 304.821 64.38C305.061 64.2267 305.255 64.0067 305.401 63.72L305.821 64C305.655 64.34 305.415 64.6133 305.101 64.82C304.795 65.02 304.405 65.12 303.931 65.12ZM308.844 65.12C308.504 65.12 308.194 65.06 307.914 64.94C307.641 64.82 307.404 64.6467 307.204 64.42C307.011 64.1867 306.861 63.9033 306.754 63.57C306.654 63.2367 306.604 62.86 306.604 62.44C306.604 62.02 306.654 61.6467 306.754 61.32C306.861 60.9867 307.011 60.7067 307.204 60.48C307.404 60.2467 307.641 60.07 307.914 59.95C308.187 59.8233 308.494 59.76 308.834 59.76C309.161 59.76 309.457 59.8233 309.724 59.95C309.991 60.07 310.217 60.24 310.404 60.46C310.591 60.68 310.734 60.9467 310.834 61.26C310.941 61.5667 310.994 61.9067 310.994 62.28V62.55H307.204V62.8C307.204 63.0667 307.241 63.3133 307.314 63.54C307.394 63.76 307.504 63.95 307.644 64.11C307.791 64.27 307.967 64.3967 308.174 64.49C308.381 64.5767 308.614 64.62 308.874 64.62C309.621 64.62 310.137 64.2767 310.424 63.59L310.844 63.87C310.684 64.25 310.431 64.5533 310.084 64.78C309.744 65.0067 309.331 65.12 308.844 65.12ZM308.834 60.24C308.587 60.24 308.364 60.2867 308.164 60.38C307.964 60.4667 307.791 60.59 307.644 60.75C307.504 60.91 307.394 61.1033 307.314 61.33C307.241 61.55 307.204 61.7933 307.204 62.06V62.11H310.374V62.03C310.374 61.7633 310.337 61.52 310.264 61.3C310.191 61.0733 310.084 60.8833 309.944 60.73C309.811 60.5767 309.647 60.4567 309.454 60.37C309.267 60.2833 309.061 60.24 308.834 60.24ZM317.017 58.55V65H316.417V58.55H314.077V58.02H319.357V58.55H317.017ZM320.041 65V59.88H320.611V60.8H320.651C320.751 60.56 320.921 60.3467 321.161 60.16C321.401 59.9733 321.741 59.88 322.181 59.88H322.521V60.44H322.071C321.645 60.44 321.295 60.5333 321.021 60.72C320.748 60.9067 320.611 61.1667 320.611 61.5V65H320.041ZM323.896 58.49C323.762 58.49 323.662 58.4567 323.596 58.39C323.536 58.3233 323.506 58.2367 323.506 58.13V58.03C323.506 57.9233 323.536 57.8367 323.596 57.77C323.662 57.7033 323.762 57.67 323.896 57.67C324.029 57.67 324.126 57.7033 324.186 57.77C324.252 57.8367 324.286 57.9233 324.286 58.03V58.13C324.286 58.2367 324.252 58.3233 324.186 58.39C324.126 58.4567 324.029 58.49 323.896 58.49ZM323.616 59.88H324.186V65H323.616V59.88ZM330.247 65.6C330.247 66.12 330.037 66.5033 329.617 66.75C329.204 66.9967 328.594 67.12 327.787 67.12C327.007 67.12 326.444 67.0067 326.097 66.78C325.751 66.5533 325.577 66.24 325.577 65.84C325.577 65.5467 325.654 65.3133 325.807 65.14C325.961 64.9667 326.177 64.84 326.457 64.76V64.68C326.137 64.5533 325.977 64.32 325.977 63.98C325.977 63.7267 326.061 63.5333 326.227 63.4C326.394 63.2667 326.601 63.1667 326.847 63.1V63.06C326.547 62.9267 326.314 62.7267 326.147 62.46C325.981 62.1933 325.897 61.8733 325.897 61.5C325.897 61.24 325.941 61.0033 326.027 60.79C326.114 60.5767 326.237 60.3933 326.397 60.24C326.564 60.0867 326.761 59.97 326.987 59.89C327.221 59.8033 327.477 59.76 327.757 59.76C328.151 59.76 328.494 59.8433 328.787 60.01V59.76C328.787 59.6067 328.824 59.4833 328.897 59.39C328.971 59.29 329.091 59.24 329.257 59.24H330.137V59.74H329.097V60.23C329.271 60.3833 329.404 60.57 329.497 60.79C329.591 61.0033 329.637 61.24 329.637 61.5C329.637 61.76 329.591 61.9967 329.497 62.21C329.411 62.4233 329.284 62.61 329.117 62.77C328.957 62.9233 328.761 63.0433 328.527 63.13C328.301 63.21 328.047 63.25 327.767 63.25C327.674 63.25 327.584 63.2433 327.497 63.23C327.411 63.2167 327.324 63.2033 327.237 63.19C327.017 63.25 326.834 63.3333 326.687 63.44C326.547 63.54 326.477 63.6767 326.477 63.85C326.477 64.1567 326.751 64.31 327.297 64.31H328.487C329.107 64.31 329.554 64.4267 329.827 64.66C330.107 64.8867 330.247 65.2 330.247 65.6ZM329.697 65.64C329.697 65.3933 329.607 65.1967 329.427 65.05C329.254 64.91 328.941 64.84 328.487 64.84H326.827C326.607 64.9133 326.434 65.0233 326.307 65.17C326.181 65.3167 326.117 65.5 326.117 65.72C326.117 65.9867 326.227 66.2067 326.447 66.38C326.667 66.56 327.001 66.65 327.447 66.65H328.087C328.587 66.65 328.981 66.5667 329.267 66.4C329.554 66.24 329.697 65.9867 329.697 65.64ZM327.767 62.79C328.161 62.79 328.467 62.6933 328.687 62.5C328.914 62.3 329.027 62.02 329.027 61.66V61.34C329.027 60.9867 328.914 60.7133 328.687 60.52C328.467 60.32 328.161 60.22 327.767 60.22C327.367 60.22 327.057 60.32 326.837 60.52C326.617 60.7133 326.507 60.9867 326.507 61.34V61.66C326.507 62.02 326.617 62.3 326.837 62.5C327.064 62.6933 327.374 62.79 327.767 62.79ZM335.53 65.6C335.53 66.12 335.32 66.5033 334.9 66.75C334.487 66.9967 333.877 67.12 333.07 67.12C332.29 67.12 331.727 67.0067 331.38 66.78C331.034 66.5533 330.86 66.24 330.86 65.84C330.86 65.5467 330.937 65.3133 331.09 65.14C331.244 64.9667 331.46 64.84 331.74 64.76V64.68C331.42 64.5533 331.26 64.32 331.26 63.98C331.26 63.7267 331.344 63.5333 331.51 63.4C331.677 63.2667 331.884 63.1667 332.13 63.1V63.06C331.83 62.9267 331.597 62.7267 331.43 62.46C331.264 62.1933 331.18 61.8733 331.18 61.5C331.18 61.24 331.224 61.0033 331.31 60.79C331.397 60.5767 331.52 60.3933 331.68 60.24C331.847 60.0867 332.044 59.97 332.27 59.89C332.504 59.8033 332.76 59.76 333.04 59.76C333.434 59.76 333.777 59.8433 334.07 60.01V59.76C334.07 59.6067 334.107 59.4833 334.18 59.39C334.254 59.29 334.374 59.24 334.54 59.24H335.42V59.74H334.38V60.23C334.554 60.3833 334.687 60.57 334.78 60.79C334.874 61.0033 334.92 61.24 334.92 61.5C334.92 61.76 334.874 61.9967 334.78 62.21C334.694 62.4233 334.567 62.61 334.4 62.77C334.24 62.9233 334.044 63.0433 333.81 63.13C333.584 63.21 333.33 63.25 333.05 63.25C332.957 63.25 332.867 63.2433 332.78 63.23C332.694 63.2167 332.607 63.2033 332.52 63.19C332.3 63.25 332.117 63.3333 331.97 63.44C331.83 63.54 331.76 63.6767 331.76 63.85C331.76 64.1567 332.034 64.31 332.58 64.31H333.77C334.39 64.31 334.837 64.4267 335.11 64.66C335.39 64.8867 335.53 65.2 335.53 65.6ZM334.98 65.64C334.98 65.3933 334.89 65.1967 334.71 65.05C334.537 64.91 334.224 64.84 333.77 64.84H332.11C331.89 64.9133 331.717 65.0233 331.59 65.17C331.464 65.3167 331.4 65.5 331.4 65.72C331.4 65.9867 331.51 66.2067 331.73 66.38C331.95 66.56 332.284 66.65 332.73 66.65H333.37C333.87 66.65 334.264 66.5667 334.55 66.4C334.837 66.24 334.98 65.9867 334.98 65.64ZM333.05 62.79C333.444 62.79 333.75 62.6933 333.97 62.5C334.197 62.3 334.31 62.02 334.31 61.66V61.34C334.31 60.9867 334.197 60.7133 333.97 60.52C333.75 60.32 333.444 60.22 333.05 60.22C332.65 60.22 332.34 60.32 332.12 60.52C331.9 60.7133 331.79 60.9867 331.79 61.34V61.66C331.79 62.02 331.9 62.3 332.12 62.5C332.347 62.6933 332.657 62.79 333.05 62.79ZM338.395 65.12C338.055 65.12 337.745 65.06 337.465 64.94C337.191 64.82 336.955 64.6467 336.755 64.42C336.561 64.1867 336.411 63.9033 336.305 63.57C336.205 63.2367 336.155 62.86 336.155 62.44C336.155 62.02 336.205 61.6467 336.305 61.32C336.411 60.9867 336.561 60.7067 336.755 60.48C336.955 60.2467 337.191 60.07 337.465 59.95C337.738 59.8233 338.045 59.76 338.385 59.76C338.711 59.76 339.008 59.8233 339.275 59.95C339.541 60.07 339.768 60.24 339.955 60.46C340.141 60.68 340.285 60.9467 340.385 61.26C340.491 61.5667 340.545 61.9067 340.545 62.28V62.55H336.755V62.8C336.755 63.0667 336.791 63.3133 336.865 63.54C336.945 63.76 337.055 63.95 337.195 64.11C337.341 64.27 337.518 64.3967 337.725 64.49C337.931 64.5767 338.165 64.62 338.425 64.62C339.171 64.62 339.688 64.2767 339.975 63.59L340.395 63.87C340.235 64.25 339.981 64.5533 339.635 64.78C339.295 65.0067 338.881 65.12 338.395 65.12ZM338.385 60.24C338.138 60.24 337.915 60.2867 337.715 60.38C337.515 60.4667 337.341 60.59 337.195 60.75C337.055 60.91 336.945 61.1033 336.865 61.33C336.791 61.55 336.755 61.7933 336.755 62.06V62.11H339.925V62.03C339.925 61.7633 339.888 61.52 339.815 61.3C339.741 61.0733 339.635 60.8833 339.495 60.73C339.361 60.5767 339.198 60.4567 339.005 60.37C338.818 60.2833 338.611 60.24 338.385 60.24ZM341.994 65V59.88H342.564V60.8H342.604C342.704 60.56 342.874 60.3467 343.114 60.16C343.354 59.9733 343.694 59.88 344.134 59.88H344.474V60.44H344.024C343.598 60.44 343.248 60.5333 342.974 60.72C342.701 60.9067 342.564 61.1667 342.564 61.5V65H341.994ZM347.369 65.12C347.029 65.12 346.719 65.06 346.439 64.94C346.166 64.82 345.929 64.6467 345.729 64.42C345.536 64.1867 345.386 63.9033 345.279 63.57C345.179 63.2367 345.129 62.86 345.129 62.44C345.129 62.02 345.179 61.6467 345.279 61.32C345.386 60.9867 345.536 60.7067 345.729 60.48C345.929 60.2467 346.166 60.07 346.439 59.95C346.713 59.8233 347.019 59.76 347.359 59.76C347.686 59.76 347.983 59.8233 348.249 59.95C348.516 60.07 348.743 60.24 348.929 60.46C349.116 60.68 349.259 60.9467 349.359 61.26C349.466 61.5667 349.519 61.9067 349.519 62.28V62.55H345.729V62.8C345.729 63.0667 345.766 63.3133 345.839 63.54C345.919 63.76 346.029 63.95 346.169 64.11C346.316 64.27 346.493 64.3967 346.699 64.49C346.906 64.5767 347.139 64.62 347.399 64.62C348.146 64.62 348.663 64.2767 348.949 63.59L349.369 63.87C349.209 64.25 348.956 64.5533 348.609 64.78C348.269 65.0067 347.856 65.12 347.369 65.12ZM347.359 60.24C347.113 60.24 346.889 60.2867 346.689 60.38C346.489 60.4667 346.316 60.59 346.169 60.75C346.029 60.91 345.919 61.1033 345.839 61.33C345.766 61.55 345.729 61.7933 345.729 62.06V62.11H348.899V62.03C348.899 61.7633 348.863 61.52 348.789 61.3C348.716 61.0733 348.609 60.8833 348.469 60.73C348.336 60.5767 348.173 60.4567 347.979 60.37C347.793 60.2833 347.586 60.24 347.359 60.24ZM354.279 64.18H354.249C354.116 64.4667 353.919 64.6967 353.659 64.87C353.406 65.0367 353.082 65.12 352.689 65.12C352.029 65.12 351.512 64.8867 351.139 64.42C350.766 63.9533 350.579 63.2933 350.579 62.44C350.579 61.5867 350.766 60.9267 351.139 60.46C351.512 59.9933 352.029 59.76 352.689 59.76C353.082 59.76 353.409 59.8467 353.669 60.02C353.929 60.1867 354.122 60.4133 354.249 60.7H354.279V57.6H354.849V65H354.279V64.18ZM352.819 64.61C353.019 64.61 353.206 64.5833 353.379 64.53C353.559 64.4767 353.716 64.4 353.849 64.3C353.982 64.1933 354.086 64.07 354.159 63.93C354.239 63.7833 354.279 63.62 354.279 63.44V61.41C354.279 61.2433 354.239 61.09 354.159 60.95C354.086 60.81 353.982 60.69 353.849 60.59C353.716 60.49 353.559 60.4133 353.379 60.36C353.206 60.3 353.019 60.27 352.819 60.27C352.306 60.27 351.906 60.4333 351.619 60.76C351.332 61.0867 351.189 61.5267 351.189 62.08V62.8C351.189 63.3533 351.332 63.7933 351.619 64.12C351.906 64.4467 352.306 64.61 352.819 64.61Z" fill="#C6C6C6"/>
</g>
<defs>
<linearGradient id="paint0_linear_332_16448" x1="349.5" y1="20" x2="349.5" y2="208" gradientUnits="userSpaceOnUse">
<stop stop-color="#212121"/>
<stop offset="1" stop-color="#272727"/>
</linearGradient>
<linearGradient id="paint1_linear_332_16448" x1="349.5" y1="77" x2="349.5" y2="142" gradientUnits="userSpaceOnUse">
<stop stop-color="#212121"/>
<stop offset="1" stop-color="#272727"/>
</linearGradient>
<clipPath id="clip0_332_16448">
<rect width="695" height="274" fill="white"/>
</clipPath>
</defs>
</svg>
