<svg width="695" height="220" viewBox="0 0 695 220" fill="none" xmlns="http://www.w3.org/2000/svg">
<g clip-path="url(#clip0_332_16447)">
<rect width="695" height="220" fill="#1B1B1B"/>
<line x1="16" y1="194" x2="35" y2="194" stroke="#E25D58" stroke-width="2"/>
<path d="M45.144 194.888L44.136 193.028H44.1V200H43.116V191.624H44.28L47.34 196.736L48.348 198.596H48.384V191.624H49.368V200H48.204L45.144 194.888ZM53.8324 200.144C53.4084 200.144 53.0244 200.068 52.6804 199.916C52.3444 199.764 52.0524 199.548 51.8044 199.268C51.5644 198.98 51.3764 198.64 51.2404 198.248C51.1124 197.848 51.0484 197.4 51.0484 196.904C51.0484 196.416 51.1124 195.972 51.2404 195.572C51.3764 195.172 51.5644 194.832 51.8044 194.552C52.0524 194.264 52.3444 194.044 52.6804 193.892C53.0244 193.74 53.4084 193.664 53.8324 193.664C54.2484 193.664 54.6204 193.74 54.9484 193.892C55.2764 194.044 55.5564 194.256 55.7884 194.528C56.0204 194.792 56.1964 195.108 56.3164 195.476C56.4444 195.844 56.5084 196.248 56.5084 196.688V197.144H52.0564V197.432C52.0564 197.696 52.0964 197.944 52.1764 198.176C52.2644 198.4 52.3844 198.596 52.5364 198.764C52.6964 198.932 52.8884 199.064 53.1124 199.16C53.3444 199.256 53.6044 199.304 53.8924 199.304C54.2844 199.304 54.6244 199.212 54.9124 199.028C55.2084 198.844 55.4364 198.58 55.5964 198.236L56.2804 198.728C56.0804 199.152 55.7684 199.496 55.3444 199.76C54.9204 200.016 54.4164 200.144 53.8324 200.144ZM53.8324 194.468C53.5684 194.468 53.3284 194.516 53.1124 194.612C52.8964 194.7 52.7084 194.828 52.5484 194.996C52.3964 195.164 52.2764 195.364 52.1884 195.596C52.1004 195.82 52.0564 196.068 52.0564 196.34V196.424H55.4764V196.292C55.4764 195.74 55.3244 195.3 55.0204 194.972C54.7244 194.636 54.3284 194.468 53.8324 194.468ZM59.4583 200C59.1223 200 58.8663 199.908 58.6903 199.724C58.5223 199.532 58.4383 199.284 58.4383 198.98V194.648H57.4183V193.808H57.9943C58.2023 193.808 58.3423 193.768 58.4143 193.688C58.4943 193.6 58.5343 193.452 58.5343 193.244V192.092H59.3983V193.808H60.7543V194.648H59.3983V199.16H60.6583V200H59.4583ZM70.4733 200L69.6333 197.528H66.2493L65.4093 200H64.3893L67.3173 191.624H68.6013L71.5293 200H70.4733ZM67.9653 192.56H67.9053L66.4893 196.64H69.3813L67.9653 192.56ZM74.6808 200.144C74.1048 200.144 73.6208 200.036 73.2288 199.82C72.8448 199.596 72.5128 199.3 72.2328 198.932L72.9168 198.38C73.1568 198.684 73.4248 198.92 73.7208 199.088C74.0168 199.248 74.3608 199.328 74.7528 199.328C75.1608 199.328 75.4768 199.24 75.7008 199.064C75.9328 198.888 76.0488 198.64 76.0488 198.32C76.0488 198.08 75.9688 197.876 75.8088 197.708C75.6568 197.532 75.3768 197.412 74.9688 197.348L74.4768 197.276C74.1888 197.236 73.9248 197.176 73.6848 197.096C73.4448 197.008 73.2328 196.896 73.0488 196.76C72.8728 196.616 72.7328 196.44 72.6288 196.232C72.5328 196.024 72.4848 195.776 72.4848 195.488C72.4848 195.184 72.5408 194.92 72.6528 194.696C72.7648 194.464 72.9168 194.272 73.1088 194.12C73.3088 193.968 73.5448 193.856 73.8168 193.784C74.0888 193.704 74.3808 193.664 74.6928 193.664C75.1968 193.664 75.6168 193.752 75.9528 193.928C76.2968 194.104 76.5968 194.348 76.8528 194.66L76.2168 195.236C76.0808 195.044 75.8808 194.872 75.6168 194.72C75.3528 194.56 75.0208 194.48 74.6208 194.48C74.2208 194.48 73.9168 194.568 73.7088 194.744C73.5088 194.912 73.4088 195.144 73.4088 195.44C73.4088 195.744 73.5088 195.964 73.7088 196.1C73.9168 196.236 74.2128 196.336 74.5968 196.4L75.0768 196.472C75.7648 196.576 76.2528 196.776 76.5408 197.072C76.8288 197.36 76.9728 197.74 76.9728 198.212C76.9728 198.812 76.7688 199.284 76.3608 199.628C75.9528 199.972 75.3928 200.144 74.6808 200.144ZM80.4581 200.144C79.8821 200.144 79.3981 200.036 79.0061 199.82C78.6221 199.596 78.2901 199.3 78.0101 198.932L78.6941 198.38C78.9341 198.684 79.2021 198.92 79.4981 199.088C79.7941 199.248 80.1381 199.328 80.5301 199.328C80.9381 199.328 81.2541 199.24 81.4781 199.064C81.7101 198.888 81.8261 198.64 81.8261 198.32C81.8261 198.08 81.7461 197.876 81.5861 197.708C81.4341 197.532 81.1541 197.412 80.7461 197.348L80.2541 197.276C79.9661 197.236 79.7021 197.176 79.4621 197.096C79.2221 197.008 79.0101 196.896 78.8261 196.76C78.6501 196.616 78.5101 196.44 78.4061 196.232C78.3101 196.024 78.2621 195.776 78.2621 195.488C78.2621 195.184 78.3181 194.92 78.4301 194.696C78.5421 194.464 78.6941 194.272 78.8861 194.12C79.0861 193.968 79.3221 193.856 79.5941 193.784C79.8661 193.704 80.1581 193.664 80.4701 193.664C80.9741 193.664 81.3941 193.752 81.7301 193.928C82.0741 194.104 82.3741 194.348 82.6301 194.66L81.9941 195.236C81.8581 195.044 81.6581 194.872 81.3941 194.72C81.1301 194.56 80.7981 194.48 80.3981 194.48C79.9981 194.48 79.6941 194.568 79.4861 194.744C79.2861 194.912 79.1861 195.144 79.1861 195.44C79.1861 195.744 79.2861 195.964 79.4861 196.1C79.6941 196.236 79.9901 196.336 80.3741 196.4L80.8541 196.472C81.5421 196.576 82.0301 196.776 82.3181 197.072C82.6061 197.36 82.7501 197.74 82.7501 198.212C82.7501 198.812 82.5461 199.284 82.1381 199.628C81.7301 199.972 81.1701 200.144 80.4581 200.144ZM86.7738 200.144C86.3498 200.144 85.9658 200.068 85.6218 199.916C85.2858 199.764 84.9938 199.548 84.7458 199.268C84.5058 198.98 84.3178 198.64 84.1818 198.248C84.0538 197.848 83.9898 197.4 83.9898 196.904C83.9898 196.416 84.0538 195.972 84.1818 195.572C84.3178 195.172 84.5058 194.832 84.7458 194.552C84.9938 194.264 85.2858 194.044 85.6218 193.892C85.9658 193.74 86.3498 193.664 86.7738 193.664C87.1898 193.664 87.5618 193.74 87.8898 193.892C88.2178 194.044 88.4978 194.256 88.7298 194.528C88.9618 194.792 89.1378 195.108 89.2578 195.476C89.3858 195.844 89.4498 196.248 89.4498 196.688V197.144H84.9978V197.432C84.9978 197.696 85.0378 197.944 85.1178 198.176C85.2058 198.4 85.3258 198.596 85.4778 198.764C85.6378 198.932 85.8298 199.064 86.0538 199.16C86.2858 199.256 86.5458 199.304 86.8338 199.304C87.2258 199.304 87.5658 199.212 87.8538 199.028C88.1498 198.844 88.3778 198.58 88.5378 198.236L89.2218 198.728C89.0218 199.152 88.7098 199.496 88.2858 199.76C87.8618 200.016 87.3578 200.144 86.7738 200.144ZM86.7738 194.468C86.5098 194.468 86.2698 194.516 86.0538 194.612C85.8378 194.7 85.6498 194.828 85.4898 194.996C85.3378 195.164 85.2178 195.364 85.1298 195.596C85.0418 195.82 84.9978 196.068 84.9978 196.34V196.424H88.4178V196.292C88.4178 195.74 88.2658 195.3 87.9618 194.972C87.6658 194.636 87.2698 194.468 86.7738 194.468ZM92.3997 200C92.0637 200 91.8077 199.908 91.6317 199.724C91.4637 199.532 91.3797 199.284 91.3797 198.98V194.648H90.3597V193.808H90.9357C91.1437 193.808 91.2837 193.768 91.3557 193.688C91.4357 193.6 91.4757 193.452 91.4757 193.244V192.092H92.3397V193.808H93.6957V194.648H92.3397V199.16H93.5997V200H92.3997ZM100.079 200L97.2947 191.624H98.3747L99.7547 195.848L100.679 198.992H100.739L101.687 195.848L103.079 191.624H104.123L101.303 200H100.079ZM109.524 200C109.164 200 108.904 199.904 108.744 199.712C108.592 199.52 108.496 199.28 108.456 198.992H108.396C108.26 199.376 108.036 199.664 107.724 199.856C107.412 200.048 107.04 200.144 106.608 200.144C105.952 200.144 105.44 199.976 105.072 199.64C104.712 199.304 104.532 198.848 104.532 198.272C104.532 197.688 104.744 197.24 105.168 196.928C105.6 196.616 106.268 196.46 107.172 196.46H108.396V195.848C108.396 195.408 108.276 195.072 108.036 194.84C107.796 194.608 107.428 194.492 106.932 194.492C106.556 194.492 106.24 194.576 105.984 194.744C105.736 194.912 105.528 195.136 105.36 195.416L104.784 194.876C104.952 194.54 105.22 194.256 105.588 194.024C105.956 193.784 106.42 193.664 106.98 193.664C107.732 193.664 108.316 193.848 108.732 194.216C109.148 194.584 109.356 195.096 109.356 195.752V199.16H110.064V200H109.524ZM106.764 199.328C107.004 199.328 107.224 199.3 107.424 199.244C107.624 199.188 107.796 199.108 107.94 199.004C108.084 198.9 108.196 198.78 108.276 198.644C108.356 198.508 108.396 198.36 108.396 198.2V197.18H107.124C106.572 197.18 106.168 197.26 105.912 197.42C105.664 197.58 105.54 197.812 105.54 198.116V198.368C105.54 198.672 105.648 198.908 105.864 199.076C106.088 199.244 106.388 199.328 106.764 199.328ZM112.454 200C112.118 200 111.862 199.908 111.686 199.724C111.518 199.532 111.434 199.292 111.434 199.004V191.12H112.394V199.16H113.306V200H112.454ZM118.52 198.992H118.472C118.408 199.136 118.328 199.28 118.232 199.424C118.144 199.56 118.032 199.684 117.896 199.796C117.76 199.9 117.596 199.984 117.404 200.048C117.212 200.112 116.988 200.144 116.732 200.144C116.092 200.144 115.584 199.94 115.208 199.532C114.832 199.116 114.644 198.532 114.644 197.78V193.808H115.604V197.612C115.604 198.724 116.076 199.28 117.02 199.28C117.212 199.28 117.396 199.256 117.572 199.208C117.756 199.16 117.916 199.088 118.052 198.992C118.196 198.896 118.308 198.776 118.388 198.632C118.476 198.48 118.52 198.3 118.52 198.092V193.808H119.48V200H118.52V198.992ZM123.852 200.144C123.428 200.144 123.044 200.068 122.7 199.916C122.364 199.764 122.072 199.548 121.824 199.268C121.584 198.98 121.396 198.64 121.26 198.248C121.132 197.848 121.068 197.4 121.068 196.904C121.068 196.416 121.132 195.972 121.26 195.572C121.396 195.172 121.584 194.832 121.824 194.552C122.072 194.264 122.364 194.044 122.7 193.892C123.044 193.74 123.428 193.664 123.852 193.664C124.268 193.664 124.64 193.74 124.968 193.892C125.296 194.044 125.576 194.256 125.808 194.528C126.04 194.792 126.216 195.108 126.336 195.476C126.464 195.844 126.528 196.248 126.528 196.688V197.144H122.076V197.432C122.076 197.696 122.116 197.944 122.196 198.176C122.284 198.4 122.404 198.596 122.556 198.764C122.716 198.932 122.908 199.064 123.132 199.16C123.364 199.256 123.624 199.304 123.912 199.304C124.304 199.304 124.644 199.212 124.932 199.028C125.228 198.844 125.456 198.58 125.616 198.236L126.3 198.728C126.1 199.152 125.788 199.496 125.364 199.76C124.94 200.016 124.436 200.144 123.852 200.144ZM123.852 194.468C123.588 194.468 123.348 194.516 123.132 194.612C122.916 194.7 122.728 194.828 122.568 194.996C122.416 195.164 122.296 195.364 122.208 195.596C122.12 195.82 122.076 196.068 122.076 196.34V196.424H125.496V196.292C125.496 195.74 125.344 195.3 125.04 194.972C124.744 194.636 124.348 194.468 123.852 194.468Z" fill="#D8DADC"/>
<line x1="140" y1="194" x2="159" y2="194" stroke="#A6A6A6" stroke-width="2"/>
<path d="M173.644 192.944H173.584L172.876 194.348L170.872 197.996L168.868 194.348L168.16 192.944H168.1V200H167.116V191.624H168.46L170.86 196.136H170.92L173.332 191.624H174.628V200H173.644V192.944ZM181.258 200C180.898 200 180.638 199.904 180.478 199.712C180.326 199.52 180.23 199.28 180.19 198.992H180.13C179.994 199.376 179.77 199.664 179.458 199.856C179.146 200.048 178.774 200.144 178.342 200.144C177.686 200.144 177.174 199.976 176.806 199.64C176.446 199.304 176.266 198.848 176.266 198.272C176.266 197.688 176.478 197.24 176.902 196.928C177.334 196.616 178.002 196.46 178.906 196.46H180.13V195.848C180.13 195.408 180.01 195.072 179.77 194.84C179.53 194.608 179.162 194.492 178.666 194.492C178.29 194.492 177.974 194.576 177.718 194.744C177.47 194.912 177.262 195.136 177.094 195.416L176.518 194.876C176.686 194.54 176.954 194.256 177.322 194.024C177.69 193.784 178.154 193.664 178.714 193.664C179.466 193.664 180.05 193.848 180.466 194.216C180.882 194.584 181.09 195.096 181.09 195.752V199.16H181.798V200H181.258ZM178.498 199.328C178.738 199.328 178.958 199.3 179.158 199.244C179.358 199.188 179.53 199.108 179.674 199.004C179.818 198.9 179.93 198.78 180.01 198.644C180.09 198.508 180.13 198.36 180.13 198.2V197.18H178.858C178.306 197.18 177.902 197.26 177.646 197.42C177.398 197.58 177.274 197.812 177.274 198.116V198.368C177.274 198.672 177.382 198.908 177.598 199.076C177.822 199.244 178.122 199.328 178.498 199.328ZM183.168 200V193.808H184.128V194.948H184.188C184.3 194.652 184.5 194.388 184.788 194.156C185.076 193.924 185.472 193.808 185.976 193.808H186.348V194.768H185.784C185.264 194.768 184.856 194.868 184.56 195.068C184.272 195.26 184.128 195.504 184.128 195.8V200H183.168ZM187.575 191.12H188.535V196.748H188.583L189.531 195.692L191.283 193.808H192.447L190.155 196.256L192.675 200H191.511L189.459 196.844L188.535 197.792V200H187.575V191.12ZM196.032 200.144C195.608 200.144 195.224 200.068 194.88 199.916C194.544 199.764 194.252 199.548 194.004 199.268C193.764 198.98 193.576 198.64 193.44 198.248C193.312 197.848 193.248 197.4 193.248 196.904C193.248 196.416 193.312 195.972 193.44 195.572C193.576 195.172 193.764 194.832 194.004 194.552C194.252 194.264 194.544 194.044 194.88 193.892C195.224 193.74 195.608 193.664 196.032 193.664C196.448 193.664 196.82 193.74 197.148 193.892C197.476 194.044 197.756 194.256 197.988 194.528C198.22 194.792 198.396 195.108 198.516 195.476C198.644 195.844 198.708 196.248 198.708 196.688V197.144H194.256V197.432C194.256 197.696 194.296 197.944 194.376 198.176C194.464 198.4 194.584 198.596 194.736 198.764C194.896 198.932 195.088 199.064 195.312 199.16C195.544 199.256 195.804 199.304 196.092 199.304C196.484 199.304 196.824 199.212 197.112 199.028C197.408 198.844 197.636 198.58 197.796 198.236L198.48 198.728C198.28 199.152 197.968 199.496 197.544 199.76C197.12 200.016 196.616 200.144 196.032 200.144ZM196.032 194.468C195.768 194.468 195.528 194.516 195.312 194.612C195.096 194.7 194.908 194.828 194.748 194.996C194.596 195.164 194.476 195.364 194.388 195.596C194.3 195.82 194.256 196.068 194.256 196.34V196.424H197.676V196.292C197.676 195.74 197.524 195.3 197.22 194.972C196.924 194.636 196.528 194.468 196.032 194.468ZM201.658 200C201.322 200 201.066 199.908 200.89 199.724C200.722 199.532 200.638 199.284 200.638 198.98V194.648H199.618V193.808H200.194C200.402 193.808 200.542 193.768 200.614 193.688C200.694 193.6 200.734 193.452 200.734 193.244V192.092H201.598V193.808H202.954V194.648H201.598V199.16H202.858V200H201.658ZM207.429 200V191.624H210.765C211.517 191.624 212.093 191.84 212.493 192.272C212.901 192.696 213.105 193.28 213.105 194.024C213.105 194.768 212.901 195.356 212.493 195.788C212.093 196.212 211.517 196.424 210.765 196.424H208.437V200H207.429ZM208.437 195.536H210.765C211.165 195.536 211.473 195.432 211.689 195.224C211.913 195.016 212.025 194.72 212.025 194.336V193.712C212.025 193.328 211.913 193.032 211.689 192.824C211.473 192.616 211.165 192.512 210.765 192.512H208.437V195.536ZM214.493 200V193.808H215.453V194.948H215.513C215.625 194.652 215.825 194.388 216.113 194.156C216.401 193.924 216.797 193.808 217.301 193.808H217.673V194.768H217.109C216.589 194.768 216.181 194.868 215.885 195.068C215.597 195.26 215.453 195.504 215.453 195.8V200H214.493ZM219.379 192.356C219.171 192.356 219.019 192.308 218.923 192.212C218.835 192.108 218.791 191.976 218.791 191.816V191.66C218.791 191.5 218.835 191.372 218.923 191.276C219.019 191.172 219.171 191.12 219.379 191.12C219.587 191.12 219.735 191.172 219.823 191.276C219.919 191.372 219.967 191.5 219.967 191.66V191.816C219.967 191.976 219.919 192.108 219.823 192.212C219.735 192.308 219.587 192.356 219.379 192.356ZM218.899 193.808H219.859V200H218.899V193.808ZM224.203 200.144C223.771 200.144 223.383 200.068 223.039 199.916C222.695 199.764 222.403 199.548 222.163 199.268C221.931 198.988 221.751 198.648 221.623 198.248C221.503 197.848 221.443 197.4 221.443 196.904C221.443 196.408 221.503 195.96 221.623 195.56C221.751 195.16 221.931 194.82 222.163 194.54C222.403 194.26 222.695 194.044 223.039 193.892C223.383 193.74 223.771 193.664 224.203 193.664C224.819 193.664 225.311 193.8 225.679 194.072C226.055 194.336 226.335 194.684 226.519 195.116L225.715 195.524C225.603 195.204 225.419 194.956 225.163 194.78C224.907 194.604 224.587 194.516 224.203 194.516C223.915 194.516 223.663 194.564 223.447 194.66C223.231 194.748 223.051 194.876 222.907 195.044C222.763 195.204 222.655 195.4 222.583 195.632C222.511 195.856 222.475 196.104 222.475 196.376V197.432C222.475 197.976 222.619 198.424 222.907 198.776C223.203 199.12 223.635 199.292 224.203 199.292C224.979 199.292 225.539 198.932 225.883 198.212L226.579 198.68C226.379 199.128 226.079 199.484 225.679 199.748C225.287 200.012 224.795 200.144 224.203 200.144ZM230.192 200.144C229.768 200.144 229.384 200.068 229.04 199.916C228.704 199.764 228.412 199.548 228.164 199.268C227.924 198.98 227.736 198.64 227.6 198.248C227.472 197.848 227.408 197.4 227.408 196.904C227.408 196.416 227.472 195.972 227.6 195.572C227.736 195.172 227.924 194.832 228.164 194.552C228.412 194.264 228.704 194.044 229.04 193.892C229.384 193.74 229.768 193.664 230.192 193.664C230.608 193.664 230.98 193.74 231.308 193.892C231.636 194.044 231.916 194.256 232.148 194.528C232.38 194.792 232.556 195.108 232.676 195.476C232.804 195.844 232.868 196.248 232.868 196.688V197.144H228.416V197.432C228.416 197.696 228.456 197.944 228.536 198.176C228.624 198.4 228.744 198.596 228.896 198.764C229.056 198.932 229.248 199.064 229.472 199.16C229.704 199.256 229.964 199.304 230.252 199.304C230.644 199.304 230.984 199.212 231.272 199.028C231.568 198.844 231.796 198.58 231.956 198.236L232.64 198.728C232.44 199.152 232.128 199.496 231.704 199.76C231.28 200.016 230.776 200.144 230.192 200.144ZM230.192 194.468C229.928 194.468 229.688 194.516 229.472 194.612C229.256 194.7 229.068 194.828 228.908 194.996C228.756 195.164 228.636 195.364 228.548 195.596C228.46 195.82 228.416 196.068 228.416 196.34V196.424H231.836V196.292C231.836 195.74 231.684 195.3 231.38 194.972C231.084 194.636 230.688 194.468 230.192 194.468Z" fill="#D8DADC"/>
<line x1="246" y1="194" x2="265" y2="194" stroke="#A6A6A6" stroke-width="2" stroke-dasharray="2 2"/>
<path d="M275.468 200.144C274.788 200.144 274.208 200.016 273.728 199.76C273.248 199.496 272.84 199.136 272.504 198.68L273.248 198.056C273.544 198.448 273.872 198.748 274.232 198.956C274.592 199.156 275.016 199.256 275.504 199.256C276.104 199.256 276.56 199.112 276.872 198.824C277.192 198.536 277.352 198.152 277.352 197.672C277.352 197.272 277.232 196.964 276.992 196.748C276.752 196.532 276.356 196.36 275.804 196.232L275.12 196.076C274.352 195.9 273.764 195.636 273.356 195.284C272.956 194.924 272.756 194.42 272.756 193.772C272.756 193.404 272.824 193.076 272.96 192.788C273.096 192.5 273.284 192.26 273.524 192.068C273.772 191.876 274.064 191.732 274.4 191.636C274.744 191.532 275.12 191.48 275.528 191.48C276.16 191.48 276.7 191.596 277.148 191.828C277.604 192.06 277.988 192.4 278.3 192.848L277.544 193.4C277.312 193.08 277.032 192.828 276.704 192.644C276.376 192.46 275.968 192.368 275.48 192.368C274.944 192.368 274.52 192.484 274.208 192.716C273.904 192.94 273.752 193.28 273.752 193.736C273.752 194.136 273.88 194.44 274.136 194.648C274.4 194.848 274.796 195.008 275.324 195.128L276.008 195.284C276.832 195.468 277.428 195.748 277.796 196.124C278.164 196.5 278.348 197 278.348 197.624C278.348 198.008 278.28 198.356 278.144 198.668C278.016 198.98 277.828 199.244 277.58 199.46C277.332 199.676 277.028 199.844 276.668 199.964C276.316 200.084 275.916 200.144 275.468 200.144ZM281.361 200C281.025 200 280.769 199.908 280.593 199.724C280.425 199.532 280.341 199.284 280.341 198.98V194.648H279.321V193.808H279.897C280.105 193.808 280.245 193.768 280.317 193.688C280.397 193.6 280.437 193.452 280.437 193.244V192.092H281.301V193.808H282.657V194.648H281.301V199.16H282.561V200H281.361ZM284.2 200V193.808H285.16V194.948H285.22C285.332 194.652 285.532 194.388 285.82 194.156C286.108 193.924 286.504 193.808 287.008 193.808H287.38V194.768H286.816C286.296 194.768 285.888 194.868 285.592 195.068C285.304 195.26 285.16 195.504 285.16 195.8V200H284.2ZM293.059 200C292.699 200 292.439 199.904 292.279 199.712C292.127 199.52 292.031 199.28 291.991 198.992H291.931C291.795 199.376 291.571 199.664 291.259 199.856C290.947 200.048 290.575 200.144 290.143 200.144C289.487 200.144 288.975 199.976 288.607 199.64C288.247 199.304 288.067 198.848 288.067 198.272C288.067 197.688 288.279 197.24 288.703 196.928C289.135 196.616 289.803 196.46 290.707 196.46H291.931V195.848C291.931 195.408 291.811 195.072 291.571 194.84C291.331 194.608 290.963 194.492 290.467 194.492C290.091 194.492 289.775 194.576 289.519 194.744C289.271 194.912 289.063 195.136 288.895 195.416L288.319 194.876C288.487 194.54 288.755 194.256 289.123 194.024C289.491 193.784 289.955 193.664 290.515 193.664C291.267 193.664 291.851 193.848 292.267 194.216C292.683 194.584 292.891 195.096 292.891 195.752V199.16H293.599V200H293.059ZM290.299 199.328C290.539 199.328 290.759 199.3 290.959 199.244C291.159 199.188 291.331 199.108 291.475 199.004C291.619 198.9 291.731 198.78 291.811 198.644C291.891 198.508 291.931 198.36 291.931 198.2V197.18H290.659C290.107 197.18 289.703 197.26 289.447 197.42C289.199 197.58 289.075 197.812 289.075 198.116V198.368C289.075 198.672 289.183 198.908 289.399 199.076C289.623 199.244 289.923 199.328 290.299 199.328ZM296.337 200C296.001 200 295.745 199.908 295.569 199.724C295.401 199.532 295.317 199.284 295.317 198.98V194.648H294.297V193.808H294.873C295.081 193.808 295.221 193.768 295.293 193.688C295.373 193.6 295.413 193.452 295.413 193.244V192.092H296.277V193.808H297.633V194.648H296.277V199.16H297.537V200H296.337ZM301.457 200.144C301.033 200.144 300.649 200.068 300.305 199.916C299.969 199.764 299.677 199.548 299.429 199.268C299.189 198.98 299.001 198.64 298.865 198.248C298.737 197.848 298.673 197.4 298.673 196.904C298.673 196.416 298.737 195.972 298.865 195.572C299.001 195.172 299.189 194.832 299.429 194.552C299.677 194.264 299.969 194.044 300.305 193.892C300.649 193.74 301.033 193.664 301.457 193.664C301.873 193.664 302.245 193.74 302.573 193.892C302.901 194.044 303.181 194.256 303.413 194.528C303.645 194.792 303.821 195.108 303.941 195.476C304.069 195.844 304.133 196.248 304.133 196.688V197.144H299.681V197.432C299.681 197.696 299.721 197.944 299.801 198.176C299.889 198.4 300.009 198.596 300.161 198.764C300.321 198.932 300.513 199.064 300.737 199.16C300.969 199.256 301.229 199.304 301.517 199.304C301.909 199.304 302.249 199.212 302.537 199.028C302.833 198.844 303.061 198.58 303.221 198.236L303.905 198.728C303.705 199.152 303.393 199.496 302.969 199.76C302.545 200.016 302.041 200.144 301.457 200.144ZM301.457 194.468C301.193 194.468 300.953 194.516 300.737 194.612C300.521 194.7 300.333 194.828 300.173 194.996C300.021 195.164 299.901 195.364 299.813 195.596C299.725 195.82 299.681 196.068 299.681 196.34V196.424H303.101V196.292C303.101 195.74 302.949 195.3 302.645 194.972C302.349 194.636 301.953 194.468 301.457 194.468ZM310.935 200.684C310.935 201.324 310.683 201.792 310.179 202.088C309.683 202.392 308.935 202.544 307.935 202.544C306.967 202.544 306.271 202.412 305.847 202.148C305.423 201.884 305.211 201.508 305.211 201.02C305.211 200.684 305.299 200.42 305.475 200.228C305.651 200.044 305.891 199.908 306.195 199.82V199.688C305.827 199.512 305.643 199.224 305.643 198.824C305.643 198.512 305.743 198.276 305.943 198.116C306.143 197.948 306.399 197.824 306.711 197.744V197.696C306.343 197.52 306.055 197.268 305.847 196.94C305.647 196.612 305.547 196.232 305.547 195.8C305.547 195.488 305.603 195.2 305.715 194.936C305.827 194.672 305.983 194.448 306.183 194.264C306.391 194.072 306.635 193.924 306.915 193.82C307.203 193.716 307.523 193.664 307.875 193.664C308.315 193.664 308.707 193.744 309.051 193.904V193.796C309.051 193.556 309.107 193.36 309.219 193.208C309.331 193.048 309.515 192.968 309.771 192.968H310.695V193.808H309.519V194.204C309.743 194.396 309.915 194.628 310.035 194.9C310.163 195.164 310.227 195.464 310.227 195.8C310.227 196.112 310.171 196.4 310.059 196.664C309.947 196.928 309.787 197.156 309.579 197.348C309.379 197.532 309.135 197.676 308.847 197.78C308.559 197.884 308.239 197.936 307.887 197.936C307.687 197.936 307.487 197.916 307.287 197.876C307.079 197.932 306.891 198.016 306.723 198.128C306.555 198.232 306.471 198.38 306.471 198.572C306.471 198.756 306.559 198.88 306.735 198.944C306.911 199.008 307.139 199.04 307.419 199.04H308.739C309.507 199.04 310.063 199.188 310.407 199.484C310.759 199.772 310.935 200.172 310.935 200.684ZM310.035 200.756C310.035 200.508 309.939 200.308 309.747 200.156C309.563 200.012 309.231 199.94 308.751 199.94H306.687C306.303 200.116 306.111 200.396 306.111 200.78C306.111 201.052 306.211 201.284 306.411 201.476C306.619 201.668 306.967 201.764 307.455 201.764H308.343C308.879 201.764 309.295 201.68 309.591 201.512C309.887 201.344 310.035 201.092 310.035 200.756ZM307.887 197.168C308.295 197.168 308.619 197.072 308.859 196.88C309.099 196.68 309.219 196.376 309.219 195.968V195.632C309.219 195.224 309.099 194.924 308.859 194.732C308.619 194.532 308.295 194.432 307.887 194.432C307.479 194.432 307.155 194.532 306.915 194.732C306.675 194.924 306.555 195.224 306.555 195.632V195.968C306.555 196.376 306.675 196.68 306.915 196.88C307.155 197.072 307.479 197.168 307.887 197.168ZM315.93 193.808H316.878L314.106 201.44C314.034 201.624 313.962 201.776 313.89 201.896C313.818 202.024 313.73 202.124 313.626 202.196C313.522 202.268 313.39 202.32 313.23 202.352C313.078 202.384 312.89 202.4 312.666 202.4H312.174V201.56H313.146L313.614 200.24L311.298 193.808H312.258L313.746 198.02L314.034 199.028H314.094L314.43 198.02L315.93 193.808ZM322.042 200H321.034V191.624H324.37C325.106 191.624 325.678 191.828 326.086 192.236C326.502 192.644 326.71 193.232 326.71 194C326.71 194.616 326.566 195.124 326.278 195.524C325.998 195.916 325.582 196.176 325.03 196.304L326.95 200H325.81L323.998 196.4H322.042V200ZM324.37 195.536C324.77 195.536 325.078 195.432 325.294 195.224C325.518 195.016 325.63 194.72 325.63 194.336V193.712C325.63 193.328 325.518 193.032 325.294 192.824C325.078 192.616 324.77 192.512 324.37 192.512H322.042V195.536H324.37ZM330.766 200.144C330.342 200.144 329.958 200.068 329.614 199.916C329.278 199.764 328.986 199.548 328.738 199.268C328.498 198.98 328.31 198.64 328.174 198.248C328.046 197.848 327.982 197.4 327.982 196.904C327.982 196.416 328.046 195.972 328.174 195.572C328.31 195.172 328.498 194.832 328.738 194.552C328.986 194.264 329.278 194.044 329.614 193.892C329.958 193.74 330.342 193.664 330.766 193.664C331.182 193.664 331.554 193.74 331.882 193.892C332.21 194.044 332.49 194.256 332.722 194.528C332.954 194.792 333.13 195.108 333.25 195.476C333.378 195.844 333.442 196.248 333.442 196.688V197.144H328.99V197.432C328.99 197.696 329.03 197.944 329.11 198.176C329.198 198.4 329.318 198.596 329.47 198.764C329.63 198.932 329.822 199.064 330.046 199.16C330.278 199.256 330.538 199.304 330.826 199.304C331.218 199.304 331.558 199.212 331.846 199.028C332.142 198.844 332.37 198.58 332.53 198.236L333.214 198.728C333.014 199.152 332.702 199.496 332.278 199.76C331.854 200.016 331.35 200.144 330.766 200.144ZM330.766 194.468C330.502 194.468 330.262 194.516 330.046 194.612C329.83 194.7 329.642 194.828 329.482 194.996C329.33 195.164 329.21 195.364 329.122 195.596C329.034 195.82 328.99 196.068 328.99 196.34V196.424H332.41V196.292C332.41 195.74 332.258 195.3 331.954 194.972C331.658 194.636 331.262 194.468 330.766 194.468ZM336.884 200.144C336.308 200.144 335.824 200.036 335.432 199.82C335.048 199.596 334.716 199.3 334.436 198.932L335.12 198.38C335.36 198.684 335.628 198.92 335.924 199.088C336.22 199.248 336.564 199.328 336.956 199.328C337.364 199.328 337.68 199.24 337.904 199.064C338.136 198.888 338.252 198.64 338.252 198.32C338.252 198.08 338.172 197.876 338.012 197.708C337.86 197.532 337.58 197.412 337.172 197.348L336.68 197.276C336.392 197.236 336.128 197.176 335.888 197.096C335.648 197.008 335.436 196.896 335.252 196.76C335.076 196.616 334.936 196.44 334.832 196.232C334.736 196.024 334.688 195.776 334.688 195.488C334.688 195.184 334.744 194.92 334.856 194.696C334.968 194.464 335.12 194.272 335.312 194.12C335.512 193.968 335.748 193.856 336.02 193.784C336.292 193.704 336.584 193.664 336.896 193.664C337.4 193.664 337.82 193.752 338.156 193.928C338.5 194.104 338.8 194.348 339.056 194.66L338.42 195.236C338.284 195.044 338.084 194.872 337.82 194.72C337.556 194.56 337.224 194.48 336.824 194.48C336.424 194.48 336.12 194.568 335.912 194.744C335.712 194.912 335.612 195.144 335.612 195.44C335.612 195.744 335.712 195.964 335.912 196.1C336.12 196.236 336.416 196.336 336.8 196.4L337.28 196.472C337.968 196.576 338.456 196.776 338.744 197.072C339.032 197.36 339.176 197.74 339.176 198.212C339.176 198.812 338.972 199.284 338.564 199.628C338.156 199.972 337.596 200.144 336.884 200.144ZM343.2 200.144C342.776 200.144 342.392 200.068 342.048 199.916C341.712 199.764 341.42 199.548 341.172 199.268C340.932 198.98 340.744 198.64 340.608 198.248C340.48 197.848 340.416 197.4 340.416 196.904C340.416 196.416 340.48 195.972 340.608 195.572C340.744 195.172 340.932 194.832 341.172 194.552C341.42 194.264 341.712 194.044 342.048 193.892C342.392 193.74 342.776 193.664 343.2 193.664C343.616 193.664 343.988 193.74 344.316 193.892C344.644 194.044 344.924 194.256 345.156 194.528C345.388 194.792 345.564 195.108 345.684 195.476C345.812 195.844 345.876 196.248 345.876 196.688V197.144H341.424V197.432C341.424 197.696 341.464 197.944 341.544 198.176C341.632 198.4 341.752 198.596 341.904 198.764C342.064 198.932 342.256 199.064 342.48 199.16C342.712 199.256 342.972 199.304 343.26 199.304C343.652 199.304 343.992 199.212 344.28 199.028C344.576 198.844 344.804 198.58 344.964 198.236L345.648 198.728C345.448 199.152 345.136 199.496 344.712 199.76C344.288 200.016 343.784 200.144 343.2 200.144ZM343.2 194.468C342.936 194.468 342.696 194.516 342.48 194.612C342.264 194.7 342.076 194.828 341.916 194.996C341.764 195.164 341.644 195.364 341.556 195.596C341.468 195.82 341.424 196.068 341.424 196.34V196.424H344.844V196.292C344.844 195.74 344.692 195.3 344.388 194.972C344.092 194.636 343.696 194.468 343.2 194.468ZM348.826 200C348.49 200 348.234 199.908 348.058 199.724C347.89 199.532 347.806 199.284 347.806 198.98V194.648H346.786V193.808H347.362C347.57 193.808 347.71 193.768 347.782 193.688C347.862 193.6 347.902 193.452 347.902 193.244V192.092H348.766V193.808H350.122V194.648H348.766V199.16H350.026V200H348.826ZM354.596 191.624H358.04C358.736 191.624 359.28 191.82 359.672 192.212C360.072 192.604 360.272 193.128 360.272 193.784C360.272 194.096 360.228 194.36 360.14 194.576C360.052 194.792 359.94 194.972 359.804 195.116C359.668 195.252 359.52 195.356 359.36 195.428C359.2 195.492 359.052 195.536 358.916 195.56V195.632C359.068 195.64 359.236 195.68 359.42 195.752C359.612 195.824 359.792 195.94 359.96 196.1C360.128 196.252 360.268 196.452 360.38 196.7C360.5 196.94 360.56 197.232 360.56 197.576C360.56 197.92 360.504 198.24 360.392 198.536C360.288 198.832 360.14 199.088 359.948 199.304C359.756 199.52 359.528 199.692 359.264 199.82C359 199.94 358.712 200 358.4 200H354.596V191.624ZM355.604 199.112H358.088C358.52 199.112 358.86 199.004 359.108 198.788C359.356 198.564 359.48 198.24 359.48 197.816V197.408C359.48 196.984 359.356 196.664 359.108 196.448C358.86 196.224 358.52 196.112 358.088 196.112H355.604V199.112ZM355.604 195.248H357.92C358.32 195.248 358.632 195.148 358.856 194.948C359.08 194.748 359.192 194.46 359.192 194.084V193.676C359.192 193.3 359.08 193.012 358.856 192.812C358.632 192.612 358.32 192.512 357.92 192.512H355.604V195.248ZM364.68 200.144C364.264 200.144 363.884 200.068 363.54 199.916C363.196 199.764 362.9 199.548 362.652 199.268C362.412 198.98 362.224 198.64 362.088 198.248C361.952 197.848 361.884 197.4 361.884 196.904C361.884 196.416 361.952 195.972 362.088 195.572C362.224 195.172 362.412 194.832 362.652 194.552C362.9 194.264 363.196 194.044 363.54 193.892C363.884 193.74 364.264 193.664 364.68 193.664C365.096 193.664 365.472 193.74 365.808 193.892C366.152 194.044 366.448 194.264 366.696 194.552C366.944 194.832 367.136 195.172 367.272 195.572C367.408 195.972 367.476 196.416 367.476 196.904C367.476 197.4 367.408 197.848 367.272 198.248C367.136 198.64 366.944 198.98 366.696 199.268C366.448 199.548 366.152 199.764 365.808 199.916C365.472 200.068 365.096 200.144 364.68 200.144ZM364.68 199.292C365.2 199.292 365.624 199.132 365.952 198.812C366.28 198.492 366.444 198.004 366.444 197.348V196.46C366.444 195.804 366.28 195.316 365.952 194.996C365.624 194.676 365.2 194.516 364.68 194.516C364.16 194.516 363.736 194.676 363.408 194.996C363.08 195.316 362.916 195.804 362.916 196.46V197.348C362.916 198.004 363.08 198.492 363.408 198.812C363.736 199.132 364.16 199.292 364.68 199.292ZM372.871 198.992H372.823C372.759 199.136 372.679 199.28 372.583 199.424C372.495 199.56 372.383 199.684 372.247 199.796C372.111 199.9 371.947 199.984 371.755 200.048C371.563 200.112 371.339 200.144 371.083 200.144C370.443 200.144 369.935 199.94 369.559 199.532C369.183 199.116 368.995 198.532 368.995 197.78V193.808H369.955V197.612C369.955 198.724 370.427 199.28 371.371 199.28C371.563 199.28 371.747 199.256 371.923 199.208C372.107 199.16 372.267 199.088 372.403 198.992C372.547 198.896 372.659 198.776 372.739 198.632C372.827 198.48 372.871 198.3 372.871 198.092V193.808H373.831V200H372.871V198.992ZM375.875 200V193.808H376.835V194.816H376.883C377.035 194.464 377.247 194.184 377.519 193.976C377.799 193.768 378.171 193.664 378.635 193.664C379.275 193.664 379.779 193.872 380.147 194.288C380.523 194.696 380.711 195.276 380.711 196.028V200H379.751V196.196C379.751 195.084 379.283 194.528 378.347 194.528C378.155 194.528 377.967 194.552 377.783 194.6C377.607 194.648 377.447 194.72 377.303 194.816C377.159 194.912 377.043 195.036 376.955 195.188C376.875 195.332 376.835 195.504 376.835 195.704V200H375.875ZM386.656 198.992H386.608C386.232 199.76 385.628 200.144 384.796 200.144C384.412 200.144 384.064 200.068 383.752 199.916C383.44 199.764 383.172 199.548 382.948 199.268C382.732 198.988 382.564 198.648 382.444 198.248C382.332 197.848 382.276 197.4 382.276 196.904C382.276 196.408 382.332 195.96 382.444 195.56C382.564 195.16 382.732 194.82 382.948 194.54C383.172 194.26 383.44 194.044 383.752 193.892C384.064 193.74 384.412 193.664 384.796 193.664C385.228 193.664 385.596 193.76 385.9 193.952C386.212 194.136 386.448 194.424 386.608 194.816H386.656V191.12H387.616V200H386.656V198.992ZM385.06 199.28C385.276 199.28 385.48 199.252 385.672 199.196C385.872 199.14 386.044 199.06 386.188 198.956C386.332 198.844 386.444 198.712 386.524 198.56C386.612 198.4 386.656 198.22 386.656 198.02V195.716C386.656 195.548 386.612 195.392 386.524 195.248C386.444 195.096 386.332 194.968 386.188 194.864C386.044 194.76 385.872 194.68 385.672 194.624C385.48 194.56 385.276 194.528 385.06 194.528C384.516 194.528 384.088 194.7 383.776 195.044C383.464 195.38 383.308 195.824 383.308 196.376V197.432C383.308 197.984 383.464 198.432 383.776 198.776C384.088 199.112 384.516 199.28 385.06 199.28Z" fill="#D8DADC"/>
<line x1="401" y1="194" x2="420" y2="194" stroke="#434343" stroke-width="2"/>
<path d="M428.116 200V191.624H431.452C432.204 191.624 432.78 191.84 433.18 192.272C433.588 192.696 433.792 193.28 433.792 194.024C433.792 194.768 433.588 195.356 433.18 195.788C432.78 196.212 432.204 196.424 431.452 196.424H429.124V200H428.116ZM429.124 195.536H431.452C431.852 195.536 432.16 195.432 432.376 195.224C432.6 195.016 432.712 194.72 432.712 194.336V193.712C432.712 193.328 432.6 193.032 432.376 192.824C432.16 192.616 431.852 192.512 431.452 192.512H429.124V195.536ZM435.18 200V193.808H436.14V194.948H436.2C436.312 194.652 436.512 194.388 436.8 194.156C437.088 193.924 437.484 193.808 437.988 193.808H438.36V194.768H437.796C437.276 194.768 436.868 194.868 436.572 195.068C436.284 195.26 436.14 195.504 436.14 195.8V200H435.18ZM440.066 192.356C439.858 192.356 439.706 192.308 439.61 192.212C439.522 192.108 439.478 191.976 439.478 191.816V191.66C439.478 191.5 439.522 191.372 439.61 191.276C439.706 191.172 439.858 191.12 440.066 191.12C440.274 191.12 440.422 191.172 440.51 191.276C440.606 191.372 440.654 191.5 440.654 191.66V191.816C440.654 191.976 440.606 192.108 440.51 192.212C440.422 192.308 440.274 192.356 440.066 192.356ZM439.586 193.808H440.546V200H439.586V193.808ZM444.89 200.144C444.458 200.144 444.07 200.068 443.726 199.916C443.382 199.764 443.09 199.548 442.85 199.268C442.618 198.988 442.438 198.648 442.31 198.248C442.19 197.848 442.13 197.4 442.13 196.904C442.13 196.408 442.19 195.96 442.31 195.56C442.438 195.16 442.618 194.82 442.85 194.54C443.09 194.26 443.382 194.044 443.726 193.892C444.07 193.74 444.458 193.664 444.89 193.664C445.506 193.664 445.998 193.8 446.366 194.072C446.742 194.336 447.022 194.684 447.206 195.116L446.402 195.524C446.29 195.204 446.106 194.956 445.85 194.78C445.594 194.604 445.274 194.516 444.89 194.516C444.602 194.516 444.35 194.564 444.134 194.66C443.918 194.748 443.738 194.876 443.594 195.044C443.45 195.204 443.342 195.4 443.27 195.632C443.198 195.856 443.162 196.104 443.162 196.376V197.432C443.162 197.976 443.306 198.424 443.594 198.776C443.89 199.12 444.322 199.292 444.89 199.292C445.666 199.292 446.226 198.932 446.57 198.212L447.266 198.68C447.066 199.128 446.766 199.484 446.366 199.748C445.974 200.012 445.482 200.144 444.89 200.144ZM450.879 200.144C450.455 200.144 450.071 200.068 449.727 199.916C449.391 199.764 449.099 199.548 448.851 199.268C448.611 198.98 448.423 198.64 448.287 198.248C448.159 197.848 448.095 197.4 448.095 196.904C448.095 196.416 448.159 195.972 448.287 195.572C448.423 195.172 448.611 194.832 448.851 194.552C449.099 194.264 449.391 194.044 449.727 193.892C450.071 193.74 450.455 193.664 450.879 193.664C451.295 193.664 451.667 193.74 451.995 193.892C452.323 194.044 452.603 194.256 452.835 194.528C453.067 194.792 453.243 195.108 453.363 195.476C453.491 195.844 453.555 196.248 453.555 196.688V197.144H449.103V197.432C449.103 197.696 449.143 197.944 449.223 198.176C449.311 198.4 449.431 198.596 449.583 198.764C449.743 198.932 449.935 199.064 450.159 199.16C450.391 199.256 450.651 199.304 450.939 199.304C451.331 199.304 451.671 199.212 451.959 199.028C452.255 198.844 452.483 198.58 452.643 198.236L453.327 198.728C453.127 199.152 452.815 199.496 452.391 199.76C451.967 200.016 451.463 200.144 450.879 200.144ZM450.879 194.468C450.615 194.468 450.375 194.516 450.159 194.612C449.943 194.7 449.755 194.828 449.595 194.996C449.443 195.164 449.323 195.364 449.235 195.596C449.147 195.82 449.103 196.068 449.103 196.34V196.424H452.523V196.292C452.523 195.74 452.371 195.3 452.067 194.972C451.771 194.636 451.375 194.468 450.879 194.468ZM458.069 191.624H461.513C462.209 191.624 462.753 191.82 463.145 192.212C463.545 192.604 463.745 193.128 463.745 193.784C463.745 194.096 463.701 194.36 463.613 194.576C463.525 194.792 463.413 194.972 463.277 195.116C463.141 195.252 462.993 195.356 462.833 195.428C462.673 195.492 462.525 195.536 462.389 195.56V195.632C462.541 195.64 462.709 195.68 462.893 195.752C463.085 195.824 463.265 195.94 463.433 196.1C463.601 196.252 463.741 196.452 463.853 196.7C463.973 196.94 464.033 197.232 464.033 197.576C464.033 197.92 463.977 198.24 463.865 198.536C463.761 198.832 463.613 199.088 463.421 199.304C463.229 199.52 463.001 199.692 462.737 199.82C462.473 199.94 462.185 200 461.873 200H458.069V191.624ZM459.077 199.112H461.561C461.993 199.112 462.333 199.004 462.581 198.788C462.829 198.564 462.953 198.24 462.953 197.816V197.408C462.953 196.984 462.829 196.664 462.581 196.448C462.333 196.224 461.993 196.112 461.561 196.112H459.077V199.112ZM459.077 195.248H461.393C461.793 195.248 462.105 195.148 462.329 194.948C462.553 194.748 462.665 194.46 462.665 194.084V193.676C462.665 193.3 462.553 193.012 462.329 192.812C462.105 192.612 461.793 192.512 461.393 192.512H459.077V195.248ZM470.313 200C469.953 200 469.693 199.904 469.533 199.712C469.381 199.52 469.285 199.28 469.245 198.992H469.185C469.049 199.376 468.825 199.664 468.513 199.856C468.201 200.048 467.829 200.144 467.397 200.144C466.741 200.144 466.229 199.976 465.861 199.64C465.501 199.304 465.321 198.848 465.321 198.272C465.321 197.688 465.533 197.24 465.957 196.928C466.389 196.616 467.057 196.46 467.961 196.46H469.185V195.848C469.185 195.408 469.065 195.072 468.825 194.84C468.585 194.608 468.217 194.492 467.721 194.492C467.345 194.492 467.029 194.576 466.773 194.744C466.525 194.912 466.317 195.136 466.149 195.416L465.573 194.876C465.741 194.54 466.009 194.256 466.377 194.024C466.745 193.784 467.209 193.664 467.769 193.664C468.521 193.664 469.105 193.848 469.521 194.216C469.937 194.584 470.145 195.096 470.145 195.752V199.16H470.853V200H470.313ZM467.553 199.328C467.793 199.328 468.013 199.3 468.213 199.244C468.413 199.188 468.585 199.108 468.729 199.004C468.873 198.9 468.985 198.78 469.065 198.644C469.145 198.508 469.185 198.36 469.185 198.2V197.18H467.913C467.361 197.18 466.957 197.26 466.701 197.42C466.453 197.58 466.329 197.812 466.329 198.116V198.368C466.329 198.672 466.437 198.908 466.653 199.076C466.877 199.244 467.177 199.328 467.553 199.328ZM472.223 200V193.808H473.183V194.816H473.231C473.383 194.464 473.595 194.184 473.867 193.976C474.147 193.768 474.519 193.664 474.983 193.664C475.623 193.664 476.127 193.872 476.495 194.288C476.871 194.696 477.059 195.276 477.059 196.028V200H476.099V196.196C476.099 195.084 475.631 194.528 474.695 194.528C474.503 194.528 474.315 194.552 474.131 194.6C473.955 194.648 473.795 194.72 473.651 194.816C473.507 194.912 473.391 195.036 473.303 195.188C473.223 195.332 473.183 195.504 473.183 195.704V200H472.223ZM483.003 198.992H482.955C482.579 199.76 481.975 200.144 481.143 200.144C480.759 200.144 480.411 200.068 480.099 199.916C479.787 199.764 479.519 199.548 479.295 199.268C479.079 198.988 478.911 198.648 478.791 198.248C478.679 197.848 478.623 197.4 478.623 196.904C478.623 196.408 478.679 195.96 478.791 195.56C478.911 195.16 479.079 194.82 479.295 194.54C479.519 194.26 479.787 194.044 480.099 193.892C480.411 193.74 480.759 193.664 481.143 193.664C481.575 193.664 481.943 193.76 482.247 193.952C482.559 194.136 482.795 194.424 482.955 194.816H483.003V191.12H483.963V200H483.003V198.992ZM481.407 199.28C481.623 199.28 481.827 199.252 482.019 199.196C482.219 199.14 482.391 199.06 482.535 198.956C482.679 198.844 482.791 198.712 482.871 198.56C482.959 198.4 483.003 198.22 483.003 198.02V195.716C483.003 195.548 482.959 195.392 482.871 195.248C482.791 195.096 482.679 194.968 482.535 194.864C482.391 194.76 482.219 194.68 482.019 194.624C481.827 194.56 481.623 194.528 481.407 194.528C480.863 194.528 480.435 194.7 480.123 195.044C479.811 195.38 479.655 195.824 479.655 196.376V197.432C479.655 197.984 479.811 198.432 480.123 198.776C480.435 199.112 480.863 199.28 481.407 199.28ZM487.864 200.144C487.288 200.144 486.804 200.036 486.412 199.82C486.028 199.596 485.696 199.3 485.416 198.932L486.1 198.38C486.34 198.684 486.608 198.92 486.904 199.088C487.2 199.248 487.544 199.328 487.936 199.328C488.344 199.328 488.66 199.24 488.884 199.064C489.116 198.888 489.232 198.64 489.232 198.32C489.232 198.08 489.152 197.876 488.992 197.708C488.84 197.532 488.56 197.412 488.152 197.348L487.66 197.276C487.372 197.236 487.108 197.176 486.868 197.096C486.628 197.008 486.416 196.896 486.232 196.76C486.056 196.616 485.916 196.44 485.812 196.232C485.716 196.024 485.668 195.776 485.668 195.488C485.668 195.184 485.724 194.92 485.836 194.696C485.948 194.464 486.1 194.272 486.292 194.12C486.492 193.968 486.728 193.856 487 193.784C487.272 193.704 487.564 193.664 487.876 193.664C488.38 193.664 488.8 193.752 489.136 193.928C489.48 194.104 489.78 194.348 490.036 194.66L489.4 195.236C489.264 195.044 489.064 194.872 488.8 194.72C488.536 194.56 488.204 194.48 487.804 194.48C487.404 194.48 487.1 194.568 486.892 194.744C486.692 194.912 486.592 195.144 486.592 195.44C486.592 195.744 486.692 195.964 486.892 196.1C487.1 196.236 487.396 196.336 487.78 196.4L488.26 196.472C488.948 196.576 489.436 196.776 489.724 197.072C490.012 197.36 490.156 197.74 490.156 198.212C490.156 198.812 489.952 199.284 489.544 199.628C489.136 199.972 488.576 200.144 487.864 200.144Z" fill="#D8DADC"/>
<path d="M219.662 54H-13V133H219.662V125.5H475.841V117.5H703V38H475.841V46H219.662V54Z" fill="url(#paint0_linear_332_16447)" stroke="#434343" stroke-width="0.5"/>
<path d="M0.246094 119.792C1.88637 119.792 5.88168 121.845 6.6485 120.503C8.43012 117.385 8.52907 116.591 12.2506 116.591C14.0518 116.591 23.5001 116.554 23.8994 116.235C28.2893 112.723 35.276 115.4 38.6605 109.477C39.6026 107.828 43.4163 108.588 45.0629 108.588C48.7303 108.588 47.3075 105.537 49.8647 105.386C53.6789 105.162 58.7091 101.397 61.7803 102.274C68.7181 104.256 65.0431 96.114 70.6725 95.7828C76.6709 95.43 76.3758 91.1916 81.0765 88.5801C82.8174 87.6129 87.5481 90.7385 88.1902 88.4912C89.095 85.3245 91.682 86.4917 93.7923 83.7783C95.1071 82.088 98.401 80.3008 99.1277 79.0654C100.673 76.4384 100.118 72.6356 103.04 71.4181C104.288 70.8983 112.226 63.5876 112.377 63.0594C112.803 61.5672 119.608 55.7398 121.536 53.8115C123.923 51.4247 128.561 45.9337 131.495 44.2079C135.126 42.0725 139.975 33.91 145.101 35.0489C148.065 35.7076 147.908 48.8822 151.058 41.0067C153.2 35.6514 168.309 49.6865 168.309 53.3669C168.309 56.0109 172.876 59.7703 173.111 63.7708C173.281 66.6618 172.421 67.9747 175.512 68.6615C179.209 69.483 176.616 73.297 178.713 74.975C185.628 80.5065 192.445 86.3664 199.521 91.8702C203.204 94.7346 206.274 97.2216 208.68 100.229C210.664 102.708 215.335 106.315 216.238 109.477C218.148 116.162 223.35 114.784 225.575 119.792C226.372 121.585 228.474 132.23 232.333 130.64C236.44 128.949 240.707 134.105 244.516 135.798C249.681 138.094 256.83 138.525 259.543 143.801C264.554 153.543 282.221 152.6 287.554 143.001C288.894 140.588 288.033 137.813 291.556 137.398C294.001 137.111 296.62 134.806 297.602 132.597C299.095 129.239 299.928 130.914 301.871 128.417C304.614 124.89 302.459 118.32 305.161 115.079C307.009 112.861 305.582 111.244 309.162 113.034C314.212 115.559 314.34 113.248 318.766 110.544C320.349 109.577 323.758 109.181 324.812 108.232C326.519 106.696 325.981 102.326 328.369 102.185C334.08 101.849 335.686 95.9864 340.374 93.3819C342.494 92.2042 346.122 93.5342 347.577 91.5145C350.012 88.1326 349.537 84.8254 353.979 84.5786C357.534 84.3811 361.685 74.3834 363.583 71.0624C366.386 66.1566 372.991 70.3294 376.743 67.3277C382.893 62.408 386.579 71.5805 389.992 60.6585C391.506 55.815 390.96 57.0964 393.994 58.6133C396.267 59.75 396.384 54.1672 398.796 54.1672C400.658 54.1672 401.997 57.243 401.997 53.3669C401.997 49.9979 403.529 48.9473 405.91 47.5869C408.551 46.0776 409.304 33.8773 412.312 30.8695C413.653 29.5285 412.987 25.3745 414.802 24.4671C416.583 23.5766 417.576 23.8979 419.248 20.5546C424.619 9.81222 426.243 28.9682 430.096 30.0692C431.887 30.5809 443.502 32.3102 443.613 31.7588C444.374 27.9535 454.341 39.9683 456.417 41.0067C465.965 45.7805 470.33 63.121 482.027 63.7708C485.679 63.9737 484.005 67.8801 486.117 68.4837C490.526 69.7434 490.494 70.6375 494.209 74.3526C496.788 76.9307 501.363 80.0348 502.479 83.6894C502.858 84.9281 502.131 88.8362 503.724 89.2915C505.621 89.8334 509.696 88.271 510.838 90.2696C512.241 92.7258 513.941 94.847 515.284 97.3834C516.766 100.182 519.982 97.8569 521.686 100.585C524.437 104.985 528.389 107.744 532.446 110.9C536.878 114.347 558.13 112.839 562.768 110.188C565.98 108.353 568.558 112.579 572.906 108.232C575.188 105.949 580.437 102.185 583.665 102.185C587.195 102.185 586.066 98.4527 586.066 95.7828C586.066 90.9886 589.118 91.8676 589.267 88.1355C589.703 77.2425 598.275 95.8809 601.716 89.3804C603.457 86.0922 602.215 86.9478 606.074 86.0903C609.13 85.4112 608.408 80.5961 610.964 79.8657C613.839 79.0445 614.026 77.3618 615.233 74.6193C619.401 65.1449 624.138 85.9303 624.481 74.975C624.785 65.2276 629.222 56.0908 635.596 48.654C638.176 45.6435 645.8 48.6755 649.201 45.275C651.586 42.8898 658.256 30.1361 659.338 31.7588C660.847 34.0225 669.376 31.536 671.787 30.1582C676.755 27.3193 681.186 31.6562 685.303 33.7151C688.554 35.3403 687.833 37.9334 691.706 38.1612C693.33 38.2567 695.917 40.182 696.508 41.3624" stroke="#A6A6A6" stroke-width="0.5" stroke-linecap="round"/>
<path d="M219.5 87H-2V111.5H219.5V102.5H475.5V93.5H697.5V71H475.5V79.5H219.5V87Z" stroke="#A6A6A6" stroke-width="0.5" stroke-dasharray="2 2"/>
<path d="M-4 95.5C141 91.5 522.5 78.5 709 75" stroke="#E25D58"/>
<path d="M219.755 77.0477C219.781 77.1832 219.912 77.2718 220.048 77.2454L222.256 76.8159C222.392 76.7896 222.48 76.6584 222.454 76.5228C222.428 76.3873 222.296 76.2988 222.161 76.3251L220.198 76.7069L219.816 74.7436C219.79 74.6081 219.658 74.5196 219.523 74.546C219.387 74.5723 219.299 74.7035 219.325 74.8391L219.755 77.0477ZM248.793 33.8602L248.235 34.6871L248.65 34.9667L249.207 34.1398L248.793 33.8602ZM247.12 36.341L246.004 37.9948L246.419 38.2744L247.534 36.6206L247.12 36.341ZM244.889 39.6487L243.774 41.3025L244.188 41.5821L245.303 39.9282L244.889 39.6487ZM242.658 42.9564L241.543 44.6102L241.957 44.8898L243.073 43.2359L242.658 42.9564ZM240.427 46.2641L239.312 47.9179L239.727 48.1975L240.842 46.5436L240.427 46.2641ZM238.197 49.5718L237.081 51.2256L237.496 51.5052L238.611 49.8513L238.197 49.5718ZM235.966 52.8794L234.85 54.5333L235.265 54.8129L236.38 53.159L235.966 52.8794ZM233.735 56.1871L232.62 57.841L233.034 58.1206L234.15 56.4667L233.735 56.1871ZM231.504 59.4948L230.389 61.1487L230.803 61.4282L231.919 59.7744L231.504 59.4948ZM229.274 62.8025L228.158 64.4564L228.573 64.7359L229.688 63.0821L229.274 62.8025ZM227.043 66.1102L225.927 67.7641L226.342 68.0436L227.457 66.3898L227.043 66.1102ZM224.812 69.4179L223.697 71.0718L224.111 71.3513L225.227 69.6975L224.812 69.4179ZM222.581 72.7256L221.466 74.3794L221.88 74.659L222.996 73.0052L222.581 72.7256ZM220.35 76.0333L219.793 76.8602L220.207 77.1398L220.765 76.3129L220.35 76.0333Z" fill="#F4F4F4"/>
<path d="M477.755 76.0477C477.781 76.1832 477.912 76.2718 478.048 76.2454L480.256 75.8159C480.392 75.7896 480.48 75.6584 480.454 75.5228C480.428 75.3873 480.296 75.2988 480.161 75.3251L478.198 75.7069L477.816 73.7436C477.79 73.6081 477.658 73.5196 477.523 73.546C477.387 73.5723 477.299 73.7035 477.325 73.8391L477.755 76.0477ZM506.793 32.8602L506.235 33.6871L506.65 33.9667L507.207 33.1398L506.793 32.8602ZM505.12 35.341L504.004 36.9948L504.419 37.2744L505.534 35.6206L505.12 35.341ZM502.889 38.6487L501.774 40.3025L502.188 40.5821L503.303 38.9282L502.889 38.6487ZM500.658 41.9564L499.543 43.6102L499.957 43.8898L501.073 42.2359L500.658 41.9564ZM498.427 45.2641L497.312 46.9179L497.727 47.1975L498.842 45.5436L498.427 45.2641ZM496.197 48.5718L495.081 50.2256L495.496 50.5052L496.611 48.8513L496.197 48.5718ZM493.966 51.8794L492.85 53.5333L493.265 53.8129L494.38 52.159L493.966 51.8794ZM491.735 55.1871L490.62 56.841L491.034 57.1206L492.15 55.4667L491.735 55.1871ZM489.504 58.4948L488.389 60.1487L488.803 60.4282L489.919 58.7744L489.504 58.4948ZM487.274 61.8025L486.158 63.4564L486.573 63.7359L487.688 62.0821L487.274 61.8025ZM485.043 65.1102L483.927 66.7641L484.342 67.0436L485.457 65.3898L485.043 65.1102ZM482.812 68.4179L481.697 70.0718L482.111 70.3513L483.227 68.6975L482.812 68.4179ZM480.581 71.7256L479.466 73.3794L479.88 73.659L480.996 72.0052L480.581 71.7256ZM478.35 75.0333L477.793 75.8602L478.207 76.1398L478.765 75.3129L478.35 75.0333Z" fill="#F4F4F4"/>
<path d="M221.59 28H220.99V21.02H223.73C224.33 21.02 224.79 21.19 225.11 21.53C225.437 21.87 225.6 22.3467 225.6 22.96C225.6 23.5 225.467 23.9367 225.2 24.27C224.94 24.6033 224.56 24.8033 224.06 24.87L225.78 28H225.11L223.44 24.91H221.59V28ZM223.73 24.4C224.13 24.4 224.433 24.29 224.64 24.07C224.853 23.8433 224.96 23.5567 224.96 23.21V22.73C224.96 22.39 224.853 22.11 224.64 21.89C224.433 21.6633 224.13 21.55 223.73 21.55H221.59V24.4H223.73ZM228.971 28.12C228.631 28.12 228.321 28.06 228.041 27.94C227.768 27.82 227.531 27.6467 227.331 27.42C227.138 27.1867 226.988 26.9033 226.881 26.57C226.781 26.2367 226.731 25.86 226.731 25.44C226.731 25.02 226.781 24.6467 226.881 24.32C226.988 23.9867 227.138 23.7067 227.331 23.48C227.531 23.2467 227.768 23.07 228.041 22.95C228.314 22.8233 228.621 22.76 228.961 22.76C229.288 22.76 229.584 22.8233 229.851 22.95C230.118 23.07 230.344 23.24 230.531 23.46C230.718 23.68 230.861 23.9467 230.961 24.26C231.068 24.5667 231.121 24.9067 231.121 25.28V25.55H227.331V25.8C227.331 26.0667 227.368 26.3133 227.441 26.54C227.521 26.76 227.631 26.95 227.771 27.11C227.918 27.27 228.094 27.3967 228.301 27.49C228.508 27.5767 228.741 27.62 229.001 27.62C229.748 27.62 230.264 27.2767 230.551 26.59L230.971 26.87C230.811 27.25 230.558 27.5533 230.211 27.78C229.871 28.0067 229.458 28.12 228.971 28.12ZM228.961 23.24C228.714 23.24 228.491 23.2867 228.291 23.38C228.091 23.4667 227.918 23.59 227.771 23.75C227.631 23.91 227.521 24.1033 227.441 24.33C227.368 24.55 227.331 24.7933 227.331 25.06V25.11H230.501V25.03C230.501 24.7633 230.464 24.52 230.391 24.3C230.318 24.0733 230.211 23.8833 230.071 23.73C229.938 23.5767 229.774 23.4567 229.581 23.37C229.394 23.2833 229.188 23.24 228.961 23.24ZM232.571 20.6H233.141V23.7H233.171C233.297 23.4133 233.491 23.1867 233.751 23.02C234.011 22.8467 234.337 22.76 234.731 22.76C235.391 22.76 235.907 22.9933 236.281 23.46C236.654 23.9267 236.841 24.5867 236.841 25.44C236.841 26.2933 236.654 26.9533 236.281 27.42C235.907 27.8867 235.391 28.12 234.731 28.12C234.337 28.12 234.014 28.0367 233.761 27.87C233.507 27.6967 233.311 27.4667 233.171 27.18H233.141V28H232.571V20.6ZM234.601 27.61C235.114 27.61 235.514 27.4467 235.801 27.12C236.087 26.7933 236.231 26.3533 236.231 25.8V25.08C236.231 24.5267 236.087 24.0867 235.801 23.76C235.514 23.4333 235.114 23.27 234.601 23.27C234.401 23.27 234.211 23.3 234.031 23.36C233.857 23.4133 233.704 23.49 233.571 23.59C233.437 23.69 233.331 23.81 233.251 23.95C233.177 24.09 233.141 24.2433 233.141 24.41V26.44C233.141 26.62 233.177 26.7833 233.251 26.93C233.331 27.07 233.437 27.1933 233.571 27.3C233.704 27.4 233.857 27.4767 234.031 27.53C234.211 27.5833 234.401 27.61 234.601 27.61ZM241.833 28C241.613 28 241.453 27.9433 241.353 27.83C241.253 27.7167 241.196 27.5633 241.183 27.37V27.19H241.133C241.019 27.4767 240.833 27.7033 240.573 27.87C240.313 28.0367 239.983 28.12 239.583 28.12C239.043 28.12 238.626 27.99 238.333 27.73C238.039 27.4633 237.893 27.09 237.893 26.61C237.893 26.1567 238.053 25.7967 238.373 25.53C238.699 25.2633 239.233 25.13 239.973 25.13H241.153V24.53C241.153 23.6833 240.716 23.26 239.843 23.26C239.503 23.26 239.219 23.3333 238.993 23.48C238.766 23.62 238.583 23.8233 238.443 24.09L238.083 23.79C238.223 23.49 238.436 23.2433 238.723 23.05C239.016 22.8567 239.396 22.76 239.863 22.76C240.463 22.76 240.923 22.91 241.243 23.21C241.563 23.51 241.723 23.93 241.723 24.47V27.5H242.413V28H241.833ZM239.663 27.63C239.869 27.63 240.063 27.6033 240.243 27.55C240.423 27.4967 240.579 27.4233 240.713 27.33C240.853 27.23 240.959 27.1133 241.033 26.98C241.113 26.84 241.153 26.6833 241.153 26.51V25.56H239.953C239.439 25.56 239.066 25.6433 238.833 25.81C238.606 25.97 238.493 26.1933 238.493 26.48V26.72C238.493 27.02 238.599 27.2467 238.813 27.4C239.026 27.5533 239.309 27.63 239.663 27.63ZM244.216 28C244.01 28 243.853 27.9433 243.746 27.83C243.64 27.7167 243.586 27.5667 243.586 27.38V20.6H244.156V27.5H244.946V28H244.216ZM249.743 28C249.523 28 249.363 27.9433 249.263 27.83C249.163 27.7167 249.106 27.5633 249.093 27.37V27.19H249.043C248.93 27.4767 248.743 27.7033 248.483 27.87C248.223 28.0367 247.893 28.12 247.493 28.12C246.953 28.12 246.536 27.99 246.243 27.73C245.95 27.4633 245.803 27.09 245.803 26.61C245.803 26.1567 245.963 25.7967 246.283 25.53C246.61 25.2633 247.143 25.13 247.883 25.13H249.063V24.53C249.063 23.6833 248.626 23.26 247.753 23.26C247.413 23.26 247.13 23.3333 246.903 23.48C246.676 23.62 246.493 23.8233 246.353 24.09L245.993 23.79C246.133 23.49 246.346 23.2433 246.633 23.05C246.926 22.8567 247.306 22.76 247.773 22.76C248.373 22.76 248.833 22.91 249.153 23.21C249.473 23.51 249.633 23.93 249.633 24.47V27.5H250.323V28H249.743ZM247.573 27.63C247.78 27.63 247.973 27.6033 248.153 27.55C248.333 27.4967 248.49 27.4233 248.623 27.33C248.763 27.23 248.87 27.1133 248.943 26.98C249.023 26.84 249.063 26.6833 249.063 26.51V25.56H247.863C247.35 25.56 246.976 25.6433 246.743 25.81C246.516 25.97 246.403 26.1933 246.403 26.48V26.72C246.403 27.02 246.51 27.2467 246.723 27.4C246.936 27.5533 247.22 27.63 247.573 27.63ZM251.496 28V22.88H252.066V23.69H252.096C252.21 23.4233 252.386 23.2033 252.626 23.03C252.866 22.85 253.193 22.76 253.606 22.76C254.153 22.76 254.576 22.93 254.876 23.27C255.183 23.6033 255.336 24.0833 255.336 24.71V28H254.766V24.81C254.766 24.29 254.653 23.9033 254.426 23.65C254.206 23.3967 253.883 23.27 253.456 23.27C253.276 23.27 253.103 23.2933 252.936 23.34C252.77 23.3867 252.62 23.4567 252.486 23.55C252.36 23.6433 252.256 23.7633 252.176 23.91C252.103 24.05 252.066 24.2133 252.066 24.4V28H251.496ZM258.931 28.12C258.225 28.12 257.678 27.8867 257.291 27.42C256.911 26.9533 256.721 26.2933 256.721 25.44C256.721 24.5867 256.911 23.9267 257.291 23.46C257.678 22.9933 258.225 22.76 258.931 22.76C259.405 22.76 259.788 22.8633 260.081 23.07C260.375 23.2767 260.598 23.55 260.751 23.89L260.271 24.13C260.151 23.85 259.981 23.6367 259.761 23.49C259.548 23.3433 259.271 23.27 258.931 23.27C258.411 23.27 258.015 23.4367 257.741 23.77C257.468 24.1033 257.331 24.54 257.331 25.08V25.8C257.331 26.34 257.468 26.7767 257.741 27.11C258.015 27.4433 258.411 27.61 258.931 27.61C259.285 27.61 259.581 27.5333 259.821 27.38C260.061 27.2267 260.255 27.0067 260.401 26.72L260.821 27C260.655 27.34 260.415 27.6133 260.101 27.82C259.795 28.02 259.405 28.12 258.931 28.12ZM263.844 28.12C263.504 28.12 263.194 28.06 262.914 27.94C262.641 27.82 262.404 27.6467 262.204 27.42C262.011 27.1867 261.861 26.9033 261.754 26.57C261.654 26.2367 261.604 25.86 261.604 25.44C261.604 25.02 261.654 24.6467 261.754 24.32C261.861 23.9867 262.011 23.7067 262.204 23.48C262.404 23.2467 262.641 23.07 262.914 22.95C263.187 22.8233 263.494 22.76 263.834 22.76C264.161 22.76 264.457 22.8233 264.724 22.95C264.991 23.07 265.217 23.24 265.404 23.46C265.591 23.68 265.734 23.9467 265.834 24.26C265.941 24.5667 265.994 24.9067 265.994 25.28V25.55H262.204V25.8C262.204 26.0667 262.241 26.3133 262.314 26.54C262.394 26.76 262.504 26.95 262.644 27.11C262.791 27.27 262.967 27.3967 263.174 27.49C263.381 27.5767 263.614 27.62 263.874 27.62C264.621 27.62 265.137 27.2767 265.424 26.59L265.844 26.87C265.684 27.25 265.431 27.5533 265.084 27.78C264.744 28.0067 264.331 28.12 263.844 28.12ZM263.834 23.24C263.587 23.24 263.364 23.2867 263.164 23.38C262.964 23.4667 262.791 23.59 262.644 23.75C262.504 23.91 262.394 24.1033 262.314 24.33C262.241 24.55 262.204 24.7933 262.204 25.06V25.11H265.374V25.03C265.374 24.7633 265.337 24.52 265.264 24.3C265.191 24.0733 265.084 23.8833 264.944 23.73C264.811 23.5767 264.647 23.4567 264.454 23.37C264.267 23.2833 264.061 23.24 263.834 23.24ZM272.017 21.55V28H271.417V21.55H269.077V21.02H274.357V21.55H272.017ZM275.041 28V22.88H275.611V23.8H275.651C275.751 23.56 275.921 23.3467 276.161 23.16C276.401 22.9733 276.741 22.88 277.181 22.88H277.521V23.44H277.071C276.645 23.44 276.295 23.5333 276.021 23.72C275.748 23.9067 275.611 24.1667 275.611 24.5V28H275.041ZM278.896 21.49C278.762 21.49 278.662 21.4567 278.596 21.39C278.536 21.3233 278.506 21.2367 278.506 21.13V21.03C278.506 20.9233 278.536 20.8367 278.596 20.77C278.662 20.7033 278.762 20.67 278.896 20.67C279.029 20.67 279.126 20.7033 279.186 20.77C279.252 20.8367 279.286 20.9233 279.286 21.03V21.13C279.286 21.2367 279.252 21.3233 279.186 21.39C279.126 21.4567 279.029 21.49 278.896 21.49ZM278.616 22.88H279.186V28H278.616V22.88ZM285.247 28.6C285.247 29.12 285.037 29.5033 284.617 29.75C284.204 29.9967 283.594 30.12 282.787 30.12C282.007 30.12 281.444 30.0067 281.097 29.78C280.751 29.5533 280.577 29.24 280.577 28.84C280.577 28.5467 280.654 28.3133 280.807 28.14C280.961 27.9667 281.177 27.84 281.457 27.76V27.68C281.137 27.5533 280.977 27.32 280.977 26.98C280.977 26.7267 281.061 26.5333 281.227 26.4C281.394 26.2667 281.601 26.1667 281.847 26.1V26.06C281.547 25.9267 281.314 25.7267 281.147 25.46C280.981 25.1933 280.897 24.8733 280.897 24.5C280.897 24.24 280.941 24.0033 281.027 23.79C281.114 23.5767 281.237 23.3933 281.397 23.24C281.564 23.0867 281.761 22.97 281.987 22.89C282.221 22.8033 282.477 22.76 282.757 22.76C283.151 22.76 283.494 22.8433 283.787 23.01V22.76C283.787 22.6067 283.824 22.4833 283.897 22.39C283.971 22.29 284.091 22.24 284.257 22.24H285.137V22.74H284.097V23.23C284.271 23.3833 284.404 23.57 284.497 23.79C284.591 24.0033 284.637 24.24 284.637 24.5C284.637 24.76 284.591 24.9967 284.497 25.21C284.411 25.4233 284.284 25.61 284.117 25.77C283.957 25.9233 283.761 26.0433 283.527 26.13C283.301 26.21 283.047 26.25 282.767 26.25C282.674 26.25 282.584 26.2433 282.497 26.23C282.411 26.2167 282.324 26.2033 282.237 26.19C282.017 26.25 281.834 26.3333 281.687 26.44C281.547 26.54 281.477 26.6767 281.477 26.85C281.477 27.1567 281.751 27.31 282.297 27.31H283.487C284.107 27.31 284.554 27.4267 284.827 27.66C285.107 27.8867 285.247 28.2 285.247 28.6ZM284.697 28.64C284.697 28.3933 284.607 28.1967 284.427 28.05C284.254 27.91 283.941 27.84 283.487 27.84H281.827C281.607 27.9133 281.434 28.0233 281.307 28.17C281.181 28.3167 281.117 28.5 281.117 28.72C281.117 28.9867 281.227 29.2067 281.447 29.38C281.667 29.56 282.001 29.65 282.447 29.65H283.087C283.587 29.65 283.981 29.5667 284.267 29.4C284.554 29.24 284.697 28.9867 284.697 28.64ZM282.767 25.79C283.161 25.79 283.467 25.6933 283.687 25.5C283.914 25.3 284.027 25.02 284.027 24.66V24.34C284.027 23.9867 283.914 23.7133 283.687 23.52C283.467 23.32 283.161 23.22 282.767 23.22C282.367 23.22 282.057 23.32 281.837 23.52C281.617 23.7133 281.507 23.9867 281.507 24.34V24.66C281.507 25.02 281.617 25.3 281.837 25.5C282.064 25.6933 282.374 25.79 282.767 25.79ZM290.53 28.6C290.53 29.12 290.32 29.5033 289.9 29.75C289.487 29.9967 288.877 30.12 288.07 30.12C287.29 30.12 286.727 30.0067 286.38 29.78C286.034 29.5533 285.86 29.24 285.86 28.84C285.86 28.5467 285.937 28.3133 286.09 28.14C286.244 27.9667 286.46 27.84 286.74 27.76V27.68C286.42 27.5533 286.26 27.32 286.26 26.98C286.26 26.7267 286.344 26.5333 286.51 26.4C286.677 26.2667 286.884 26.1667 287.13 26.1V26.06C286.83 25.9267 286.597 25.7267 286.43 25.46C286.264 25.1933 286.18 24.8733 286.18 24.5C286.18 24.24 286.224 24.0033 286.31 23.79C286.397 23.5767 286.52 23.3933 286.68 23.24C286.847 23.0867 287.044 22.97 287.27 22.89C287.504 22.8033 287.76 22.76 288.04 22.76C288.434 22.76 288.777 22.8433 289.07 23.01V22.76C289.07 22.6067 289.107 22.4833 289.18 22.39C289.254 22.29 289.374 22.24 289.54 22.24H290.42V22.74H289.38V23.23C289.554 23.3833 289.687 23.57 289.78 23.79C289.874 24.0033 289.92 24.24 289.92 24.5C289.92 24.76 289.874 24.9967 289.78 25.21C289.694 25.4233 289.567 25.61 289.4 25.77C289.24 25.9233 289.044 26.0433 288.81 26.13C288.584 26.21 288.33 26.25 288.05 26.25C287.957 26.25 287.867 26.2433 287.78 26.23C287.694 26.2167 287.607 26.2033 287.52 26.19C287.3 26.25 287.117 26.3333 286.97 26.44C286.83 26.54 286.76 26.6767 286.76 26.85C286.76 27.1567 287.034 27.31 287.58 27.31H288.77C289.39 27.31 289.837 27.4267 290.11 27.66C290.39 27.8867 290.53 28.2 290.53 28.6ZM289.98 28.64C289.98 28.3933 289.89 28.1967 289.71 28.05C289.537 27.91 289.224 27.84 288.77 27.84H287.11C286.89 27.9133 286.717 28.0233 286.59 28.17C286.464 28.3167 286.4 28.5 286.4 28.72C286.4 28.9867 286.51 29.2067 286.73 29.38C286.95 29.56 287.284 29.65 287.73 29.65H288.37C288.87 29.65 289.264 29.5667 289.55 29.4C289.837 29.24 289.98 28.9867 289.98 28.64ZM288.05 25.79C288.444 25.79 288.75 25.6933 288.97 25.5C289.197 25.3 289.31 25.02 289.31 24.66V24.34C289.31 23.9867 289.197 23.7133 288.97 23.52C288.75 23.32 288.444 23.22 288.05 23.22C287.65 23.22 287.34 23.32 287.12 23.52C286.9 23.7133 286.79 23.9867 286.79 24.34V24.66C286.79 25.02 286.9 25.3 287.12 25.5C287.347 25.6933 287.657 25.79 288.05 25.79ZM293.395 28.12C293.055 28.12 292.745 28.06 292.465 27.94C292.191 27.82 291.955 27.6467 291.755 27.42C291.561 27.1867 291.411 26.9033 291.305 26.57C291.205 26.2367 291.155 25.86 291.155 25.44C291.155 25.02 291.205 24.6467 291.305 24.32C291.411 23.9867 291.561 23.7067 291.755 23.48C291.955 23.2467 292.191 23.07 292.465 22.95C292.738 22.8233 293.045 22.76 293.385 22.76C293.711 22.76 294.008 22.8233 294.275 22.95C294.541 23.07 294.768 23.24 294.955 23.46C295.141 23.68 295.285 23.9467 295.385 24.26C295.491 24.5667 295.545 24.9067 295.545 25.28V25.55H291.755V25.8C291.755 26.0667 291.791 26.3133 291.865 26.54C291.945 26.76 292.055 26.95 292.195 27.11C292.341 27.27 292.518 27.3967 292.725 27.49C292.931 27.5767 293.165 27.62 293.425 27.62C294.171 27.62 294.688 27.2767 294.975 26.59L295.395 26.87C295.235 27.25 294.981 27.5533 294.635 27.78C294.295 28.0067 293.881 28.12 293.395 28.12ZM293.385 23.24C293.138 23.24 292.915 23.2867 292.715 23.38C292.515 23.4667 292.341 23.59 292.195 23.75C292.055 23.91 291.945 24.1033 291.865 24.33C291.791 24.55 291.755 24.7933 291.755 25.06V25.11H294.925V25.03C294.925 24.7633 294.888 24.52 294.815 24.3C294.741 24.0733 294.635 23.8833 294.495 23.73C294.361 23.5767 294.198 23.4567 294.005 23.37C293.818 23.2833 293.611 23.24 293.385 23.24ZM296.994 28V22.88H297.564V23.8H297.604C297.704 23.56 297.874 23.3467 298.114 23.16C298.354 22.9733 298.694 22.88 299.134 22.88H299.474V23.44H299.024C298.598 23.44 298.248 23.5333 297.974 23.72C297.701 23.9067 297.564 24.1667 297.564 24.5V28H296.994ZM302.369 28.12C302.029 28.12 301.719 28.06 301.439 27.94C301.166 27.82 300.929 27.6467 300.729 27.42C300.536 27.1867 300.386 26.9033 300.279 26.57C300.179 26.2367 300.129 25.86 300.129 25.44C300.129 25.02 300.179 24.6467 300.279 24.32C300.386 23.9867 300.536 23.7067 300.729 23.48C300.929 23.2467 301.166 23.07 301.439 22.95C301.713 22.8233 302.019 22.76 302.359 22.76C302.686 22.76 302.983 22.8233 303.249 22.95C303.516 23.07 303.743 23.24 303.929 23.46C304.116 23.68 304.259 23.9467 304.359 24.26C304.466 24.5667 304.519 24.9067 304.519 25.28V25.55H300.729V25.8C300.729 26.0667 300.766 26.3133 300.839 26.54C300.919 26.76 301.029 26.95 301.169 27.11C301.316 27.27 301.493 27.3967 301.699 27.49C301.906 27.5767 302.139 27.62 302.399 27.62C303.146 27.62 303.663 27.2767 303.949 26.59L304.369 26.87C304.209 27.25 303.956 27.5533 303.609 27.78C303.269 28.0067 302.856 28.12 302.369 28.12ZM302.359 23.24C302.113 23.24 301.889 23.2867 301.689 23.38C301.489 23.4667 301.316 23.59 301.169 23.75C301.029 23.91 300.919 24.1033 300.839 24.33C300.766 24.55 300.729 24.7933 300.729 25.06V25.11H303.899V25.03C303.899 24.7633 303.863 24.52 303.789 24.3C303.716 24.0733 303.609 23.8833 303.469 23.73C303.336 23.5767 303.173 23.4567 302.979 23.37C302.793 23.2833 302.586 23.24 302.359 23.24ZM309.279 27.18H309.249C309.116 27.4667 308.919 27.6967 308.659 27.87C308.406 28.0367 308.082 28.12 307.689 28.12C307.029 28.12 306.512 27.8867 306.139 27.42C305.766 26.9533 305.579 26.2933 305.579 25.44C305.579 24.5867 305.766 23.9267 306.139 23.46C306.512 22.9933 307.029 22.76 307.689 22.76C308.082 22.76 308.409 22.8467 308.669 23.02C308.929 23.1867 309.122 23.4133 309.249 23.7H309.279V20.6H309.849V28H309.279V27.18ZM307.819 27.61C308.019 27.61 308.206 27.5833 308.379 27.53C308.559 27.4767 308.716 27.4 308.849 27.3C308.982 27.1933 309.086 27.07 309.159 26.93C309.239 26.7833 309.279 26.62 309.279 26.44V24.41C309.279 24.2433 309.239 24.09 309.159 23.95C309.086 23.81 308.982 23.69 308.849 23.59C308.716 23.49 308.559 23.4133 308.379 23.36C308.206 23.3 308.019 23.27 307.819 23.27C307.306 23.27 306.906 23.4333 306.619 23.76C306.332 24.0867 306.189 24.5267 306.189 25.08V25.8C306.189 26.3533 306.332 26.7933 306.619 27.12C306.906 27.4467 307.306 27.61 307.819 27.61Z" fill="#C6C6C6"/>
<path d="M479.59 27H478.99V20.02H481.73C482.33 20.02 482.79 20.19 483.11 20.53C483.437 20.87 483.6 21.3467 483.6 21.96C483.6 22.5 483.467 22.9367 483.2 23.27C482.94 23.6033 482.56 23.8033 482.06 23.87L483.78 27H483.11L481.44 23.91H479.59V27ZM481.73 23.4C482.13 23.4 482.433 23.29 482.64 23.07C482.853 22.8433 482.96 22.5567 482.96 22.21V21.73C482.96 21.39 482.853 21.11 482.64 20.89C482.433 20.6633 482.13 20.55 481.73 20.55H479.59V23.4H481.73ZM486.971 27.12C486.631 27.12 486.321 27.06 486.041 26.94C485.768 26.82 485.531 26.6467 485.331 26.42C485.138 26.1867 484.988 25.9033 484.881 25.57C484.781 25.2367 484.731 24.86 484.731 24.44C484.731 24.02 484.781 23.6467 484.881 23.32C484.988 22.9867 485.138 22.7067 485.331 22.48C485.531 22.2467 485.768 22.07 486.041 21.95C486.314 21.8233 486.621 21.76 486.961 21.76C487.288 21.76 487.584 21.8233 487.851 21.95C488.118 22.07 488.344 22.24 488.531 22.46C488.718 22.68 488.861 22.9467 488.961 23.26C489.068 23.5667 489.121 23.9067 489.121 24.28V24.55H485.331V24.8C485.331 25.0667 485.368 25.3133 485.441 25.54C485.521 25.76 485.631 25.95 485.771 26.11C485.918 26.27 486.094 26.3967 486.301 26.49C486.508 26.5767 486.741 26.62 487.001 26.62C487.748 26.62 488.264 26.2767 488.551 25.59L488.971 25.87C488.811 26.25 488.558 26.5533 488.211 26.78C487.871 27.0067 487.458 27.12 486.971 27.12ZM486.961 22.24C486.714 22.24 486.491 22.2867 486.291 22.38C486.091 22.4667 485.918 22.59 485.771 22.75C485.631 22.91 485.521 23.1033 485.441 23.33C485.368 23.55 485.331 23.7933 485.331 24.06V24.11H488.501V24.03C488.501 23.7633 488.464 23.52 488.391 23.3C488.318 23.0733 488.211 22.8833 488.071 22.73C487.938 22.5767 487.774 22.4567 487.581 22.37C487.394 22.2833 487.188 22.24 486.961 22.24ZM490.571 19.6H491.141V22.7H491.171C491.297 22.4133 491.491 22.1867 491.751 22.02C492.011 21.8467 492.337 21.76 492.731 21.76C493.391 21.76 493.907 21.9933 494.281 22.46C494.654 22.9267 494.841 23.5867 494.841 24.44C494.841 25.2933 494.654 25.9533 494.281 26.42C493.907 26.8867 493.391 27.12 492.731 27.12C492.337 27.12 492.014 27.0367 491.761 26.87C491.507 26.6967 491.311 26.4667 491.171 26.18H491.141V27H490.571V19.6ZM492.601 26.61C493.114 26.61 493.514 26.4467 493.801 26.12C494.087 25.7933 494.231 25.3533 494.231 24.8V24.08C494.231 23.5267 494.087 23.0867 493.801 22.76C493.514 22.4333 493.114 22.27 492.601 22.27C492.401 22.27 492.211 22.3 492.031 22.36C491.857 22.4133 491.704 22.49 491.571 22.59C491.437 22.69 491.331 22.81 491.251 22.95C491.177 23.09 491.141 23.2433 491.141 23.41V25.44C491.141 25.62 491.177 25.7833 491.251 25.93C491.331 26.07 491.437 26.1933 491.571 26.3C491.704 26.4 491.857 26.4767 492.031 26.53C492.211 26.5833 492.401 26.61 492.601 26.61ZM499.833 27C499.613 27 499.453 26.9433 499.353 26.83C499.253 26.7167 499.196 26.5633 499.183 26.37V26.19H499.133C499.019 26.4767 498.833 26.7033 498.573 26.87C498.313 27.0367 497.983 27.12 497.583 27.12C497.043 27.12 496.626 26.99 496.333 26.73C496.039 26.4633 495.893 26.09 495.893 25.61C495.893 25.1567 496.053 24.7967 496.373 24.53C496.699 24.2633 497.233 24.13 497.973 24.13H499.153V23.53C499.153 22.6833 498.716 22.26 497.843 22.26C497.503 22.26 497.219 22.3333 496.993 22.48C496.766 22.62 496.583 22.8233 496.443 23.09L496.083 22.79C496.223 22.49 496.436 22.2433 496.723 22.05C497.016 21.8567 497.396 21.76 497.863 21.76C498.463 21.76 498.923 21.91 499.243 22.21C499.563 22.51 499.723 22.93 499.723 23.47V26.5H500.413V27H499.833ZM497.663 26.63C497.869 26.63 498.063 26.6033 498.243 26.55C498.423 26.4967 498.579 26.4233 498.713 26.33C498.853 26.23 498.959 26.1133 499.033 25.98C499.113 25.84 499.153 25.6833 499.153 25.51V24.56H497.953C497.439 24.56 497.066 24.6433 496.833 24.81C496.606 24.97 496.493 25.1933 496.493 25.48V25.72C496.493 26.02 496.599 26.2467 496.813 26.4C497.026 26.5533 497.309 26.63 497.663 26.63ZM502.216 27C502.01 27 501.853 26.9433 501.746 26.83C501.64 26.7167 501.586 26.5667 501.586 26.38V19.6H502.156V26.5H502.946V27H502.216ZM507.743 27C507.523 27 507.363 26.9433 507.263 26.83C507.163 26.7167 507.106 26.5633 507.093 26.37V26.19H507.043C506.93 26.4767 506.743 26.7033 506.483 26.87C506.223 27.0367 505.893 27.12 505.493 27.12C504.953 27.12 504.536 26.99 504.243 26.73C503.95 26.4633 503.803 26.09 503.803 25.61C503.803 25.1567 503.963 24.7967 504.283 24.53C504.61 24.2633 505.143 24.13 505.883 24.13H507.063V23.53C507.063 22.6833 506.626 22.26 505.753 22.26C505.413 22.26 505.13 22.3333 504.903 22.48C504.676 22.62 504.493 22.8233 504.353 23.09L503.993 22.79C504.133 22.49 504.346 22.2433 504.633 22.05C504.926 21.8567 505.306 21.76 505.773 21.76C506.373 21.76 506.833 21.91 507.153 22.21C507.473 22.51 507.633 22.93 507.633 23.47V26.5H508.323V27H507.743ZM505.573 26.63C505.78 26.63 505.973 26.6033 506.153 26.55C506.333 26.4967 506.49 26.4233 506.623 26.33C506.763 26.23 506.87 26.1133 506.943 25.98C507.023 25.84 507.063 25.6833 507.063 25.51V24.56H505.863C505.35 24.56 504.976 24.6433 504.743 24.81C504.516 24.97 504.403 25.1933 504.403 25.48V25.72C504.403 26.02 504.51 26.2467 504.723 26.4C504.936 26.5533 505.22 26.63 505.573 26.63ZM509.496 27V21.88H510.066V22.69H510.096C510.21 22.4233 510.386 22.2033 510.626 22.03C510.866 21.85 511.193 21.76 511.606 21.76C512.153 21.76 512.576 21.93 512.876 22.27C513.183 22.6033 513.336 23.0833 513.336 23.71V27H512.766V23.81C512.766 23.29 512.653 22.9033 512.426 22.65C512.206 22.3967 511.883 22.27 511.456 22.27C511.276 22.27 511.103 22.2933 510.936 22.34C510.77 22.3867 510.62 22.4567 510.486 22.55C510.36 22.6433 510.256 22.7633 510.176 22.91C510.103 23.05 510.066 23.2133 510.066 23.4V27H509.496ZM516.931 27.12C516.225 27.12 515.678 26.8867 515.291 26.42C514.911 25.9533 514.721 25.2933 514.721 24.44C514.721 23.5867 514.911 22.9267 515.291 22.46C515.678 21.9933 516.225 21.76 516.931 21.76C517.405 21.76 517.788 21.8633 518.081 22.07C518.375 22.2767 518.598 22.55 518.751 22.89L518.271 23.13C518.151 22.85 517.981 22.6367 517.761 22.49C517.548 22.3433 517.271 22.27 516.931 22.27C516.411 22.27 516.015 22.4367 515.741 22.77C515.468 23.1033 515.331 23.54 515.331 24.08V24.8C515.331 25.34 515.468 25.7767 515.741 26.11C516.015 26.4433 516.411 26.61 516.931 26.61C517.285 26.61 517.581 26.5333 517.821 26.38C518.061 26.2267 518.255 26.0067 518.401 25.72L518.821 26C518.655 26.34 518.415 26.6133 518.101 26.82C517.795 27.02 517.405 27.12 516.931 27.12ZM521.844 27.12C521.504 27.12 521.194 27.06 520.914 26.94C520.641 26.82 520.404 26.6467 520.204 26.42C520.011 26.1867 519.861 25.9033 519.754 25.57C519.654 25.2367 519.604 24.86 519.604 24.44C519.604 24.02 519.654 23.6467 519.754 23.32C519.861 22.9867 520.011 22.7067 520.204 22.48C520.404 22.2467 520.641 22.07 520.914 21.95C521.187 21.8233 521.494 21.76 521.834 21.76C522.161 21.76 522.457 21.8233 522.724 21.95C522.991 22.07 523.217 22.24 523.404 22.46C523.591 22.68 523.734 22.9467 523.834 23.26C523.941 23.5667 523.994 23.9067 523.994 24.28V24.55H520.204V24.8C520.204 25.0667 520.241 25.3133 520.314 25.54C520.394 25.76 520.504 25.95 520.644 26.11C520.791 26.27 520.967 26.3967 521.174 26.49C521.381 26.5767 521.614 26.62 521.874 26.62C522.621 26.62 523.137 26.2767 523.424 25.59L523.844 25.87C523.684 26.25 523.431 26.5533 523.084 26.78C522.744 27.0067 522.331 27.12 521.844 27.12ZM521.834 22.24C521.587 22.24 521.364 22.2867 521.164 22.38C520.964 22.4667 520.791 22.59 520.644 22.75C520.504 22.91 520.394 23.1033 520.314 23.33C520.241 23.55 520.204 23.7933 520.204 24.06V24.11H523.374V24.03C523.374 23.7633 523.337 23.52 523.264 23.3C523.191 23.0733 523.084 22.8833 522.944 22.73C522.811 22.5767 522.647 22.4567 522.454 22.37C522.267 22.2833 522.061 22.24 521.834 22.24ZM530.017 20.55V27H529.417V20.55H527.077V20.02H532.357V20.55H530.017ZM533.041 27V21.88H533.611V22.8H533.651C533.751 22.56 533.921 22.3467 534.161 22.16C534.401 21.9733 534.741 21.88 535.181 21.88H535.521V22.44H535.071C534.645 22.44 534.295 22.5333 534.021 22.72C533.748 22.9067 533.611 23.1667 533.611 23.5V27H533.041ZM536.896 20.49C536.762 20.49 536.662 20.4567 536.596 20.39C536.536 20.3233 536.506 20.2367 536.506 20.13V20.03C536.506 19.9233 536.536 19.8367 536.596 19.77C536.662 19.7033 536.762 19.67 536.896 19.67C537.029 19.67 537.126 19.7033 537.186 19.77C537.252 19.8367 537.286 19.9233 537.286 20.03V20.13C537.286 20.2367 537.252 20.3233 537.186 20.39C537.126 20.4567 537.029 20.49 536.896 20.49ZM536.616 21.88H537.186V27H536.616V21.88ZM543.247 27.6C543.247 28.12 543.037 28.5033 542.617 28.75C542.204 28.9967 541.594 29.12 540.787 29.12C540.007 29.12 539.444 29.0067 539.097 28.78C538.751 28.5533 538.577 28.24 538.577 27.84C538.577 27.5467 538.654 27.3133 538.807 27.14C538.961 26.9667 539.177 26.84 539.457 26.76V26.68C539.137 26.5533 538.977 26.32 538.977 25.98C538.977 25.7267 539.061 25.5333 539.227 25.4C539.394 25.2667 539.601 25.1667 539.847 25.1V25.06C539.547 24.9267 539.314 24.7267 539.147 24.46C538.981 24.1933 538.897 23.8733 538.897 23.5C538.897 23.24 538.941 23.0033 539.027 22.79C539.114 22.5767 539.237 22.3933 539.397 22.24C539.564 22.0867 539.761 21.97 539.987 21.89C540.221 21.8033 540.477 21.76 540.757 21.76C541.151 21.76 541.494 21.8433 541.787 22.01V21.76C541.787 21.6067 541.824 21.4833 541.897 21.39C541.971 21.29 542.091 21.24 542.257 21.24H543.137V21.74H542.097V22.23C542.271 22.3833 542.404 22.57 542.497 22.79C542.591 23.0033 542.637 23.24 542.637 23.5C542.637 23.76 542.591 23.9967 542.497 24.21C542.411 24.4233 542.284 24.61 542.117 24.77C541.957 24.9233 541.761 25.0433 541.527 25.13C541.301 25.21 541.047 25.25 540.767 25.25C540.674 25.25 540.584 25.2433 540.497 25.23C540.411 25.2167 540.324 25.2033 540.237 25.19C540.017 25.25 539.834 25.3333 539.687 25.44C539.547 25.54 539.477 25.6767 539.477 25.85C539.477 26.1567 539.751 26.31 540.297 26.31H541.487C542.107 26.31 542.554 26.4267 542.827 26.66C543.107 26.8867 543.247 27.2 543.247 27.6ZM542.697 27.64C542.697 27.3933 542.607 27.1967 542.427 27.05C542.254 26.91 541.941 26.84 541.487 26.84H539.827C539.607 26.9133 539.434 27.0233 539.307 27.17C539.181 27.3167 539.117 27.5 539.117 27.72C539.117 27.9867 539.227 28.2067 539.447 28.38C539.667 28.56 540.001 28.65 540.447 28.65H541.087C541.587 28.65 541.981 28.5667 542.267 28.4C542.554 28.24 542.697 27.9867 542.697 27.64ZM540.767 24.79C541.161 24.79 541.467 24.6933 541.687 24.5C541.914 24.3 542.027 24.02 542.027 23.66V23.34C542.027 22.9867 541.914 22.7133 541.687 22.52C541.467 22.32 541.161 22.22 540.767 22.22C540.367 22.22 540.057 22.32 539.837 22.52C539.617 22.7133 539.507 22.9867 539.507 23.34V23.66C539.507 24.02 539.617 24.3 539.837 24.5C540.064 24.6933 540.374 24.79 540.767 24.79ZM548.53 27.6C548.53 28.12 548.32 28.5033 547.9 28.75C547.487 28.9967 546.877 29.12 546.07 29.12C545.29 29.12 544.727 29.0067 544.38 28.78C544.034 28.5533 543.86 28.24 543.86 27.84C543.86 27.5467 543.937 27.3133 544.09 27.14C544.244 26.9667 544.46 26.84 544.74 26.76V26.68C544.42 26.5533 544.26 26.32 544.26 25.98C544.26 25.7267 544.344 25.5333 544.51 25.4C544.677 25.2667 544.884 25.1667 545.13 25.1V25.06C544.83 24.9267 544.597 24.7267 544.43 24.46C544.264 24.1933 544.18 23.8733 544.18 23.5C544.18 23.24 544.224 23.0033 544.31 22.79C544.397 22.5767 544.52 22.3933 544.68 22.24C544.847 22.0867 545.044 21.97 545.27 21.89C545.504 21.8033 545.76 21.76 546.04 21.76C546.434 21.76 546.777 21.8433 547.07 22.01V21.76C547.07 21.6067 547.107 21.4833 547.18 21.39C547.254 21.29 547.374 21.24 547.54 21.24H548.42V21.74H547.38V22.23C547.554 22.3833 547.687 22.57 547.78 22.79C547.874 23.0033 547.92 23.24 547.92 23.5C547.92 23.76 547.874 23.9967 547.78 24.21C547.694 24.4233 547.567 24.61 547.4 24.77C547.24 24.9233 547.044 25.0433 546.81 25.13C546.584 25.21 546.33 25.25 546.05 25.25C545.957 25.25 545.867 25.2433 545.78 25.23C545.694 25.2167 545.607 25.2033 545.52 25.19C545.3 25.25 545.117 25.3333 544.97 25.44C544.83 25.54 544.76 25.6767 544.76 25.85C544.76 26.1567 545.034 26.31 545.58 26.31H546.77C547.39 26.31 547.837 26.4267 548.11 26.66C548.39 26.8867 548.53 27.2 548.53 27.6ZM547.98 27.64C547.98 27.3933 547.89 27.1967 547.71 27.05C547.537 26.91 547.224 26.84 546.77 26.84H545.11C544.89 26.9133 544.717 27.0233 544.59 27.17C544.464 27.3167 544.4 27.5 544.4 27.72C544.4 27.9867 544.51 28.2067 544.73 28.38C544.95 28.56 545.284 28.65 545.73 28.65H546.37C546.87 28.65 547.264 28.5667 547.55 28.4C547.837 28.24 547.98 27.9867 547.98 27.64ZM546.05 24.79C546.444 24.79 546.75 24.6933 546.97 24.5C547.197 24.3 547.31 24.02 547.31 23.66V23.34C547.31 22.9867 547.197 22.7133 546.97 22.52C546.75 22.32 546.444 22.22 546.05 22.22C545.65 22.22 545.34 22.32 545.12 22.52C544.9 22.7133 544.79 22.9867 544.79 23.34V23.66C544.79 24.02 544.9 24.3 545.12 24.5C545.347 24.6933 545.657 24.79 546.05 24.79ZM551.395 27.12C551.055 27.12 550.745 27.06 550.465 26.94C550.191 26.82 549.955 26.6467 549.755 26.42C549.561 26.1867 549.411 25.9033 549.305 25.57C549.205 25.2367 549.155 24.86 549.155 24.44C549.155 24.02 549.205 23.6467 549.305 23.32C549.411 22.9867 549.561 22.7067 549.755 22.48C549.955 22.2467 550.191 22.07 550.465 21.95C550.738 21.8233 551.045 21.76 551.385 21.76C551.711 21.76 552.008 21.8233 552.275 21.95C552.541 22.07 552.768 22.24 552.955 22.46C553.141 22.68 553.285 22.9467 553.385 23.26C553.491 23.5667 553.545 23.9067 553.545 24.28V24.55H549.755V24.8C549.755 25.0667 549.791 25.3133 549.865 25.54C549.945 25.76 550.055 25.95 550.195 26.11C550.341 26.27 550.518 26.3967 550.725 26.49C550.931 26.5767 551.165 26.62 551.425 26.62C552.171 26.62 552.688 26.2767 552.975 25.59L553.395 25.87C553.235 26.25 552.981 26.5533 552.635 26.78C552.295 27.0067 551.881 27.12 551.395 27.12ZM551.385 22.24C551.138 22.24 550.915 22.2867 550.715 22.38C550.515 22.4667 550.341 22.59 550.195 22.75C550.055 22.91 549.945 23.1033 549.865 23.33C549.791 23.55 549.755 23.7933 549.755 24.06V24.11H552.925V24.03C552.925 23.7633 552.888 23.52 552.815 23.3C552.741 23.0733 552.635 22.8833 552.495 22.73C552.361 22.5767 552.198 22.4567 552.005 22.37C551.818 22.2833 551.611 22.24 551.385 22.24ZM554.994 27V21.88H555.564V22.8H555.604C555.704 22.56 555.874 22.3467 556.114 22.16C556.354 21.9733 556.694 21.88 557.134 21.88H557.474V22.44H557.024C556.598 22.44 556.248 22.5333 555.974 22.72C555.701 22.9067 555.564 23.1667 555.564 23.5V27H554.994ZM560.369 27.12C560.029 27.12 559.719 27.06 559.439 26.94C559.166 26.82 558.929 26.6467 558.729 26.42C558.536 26.1867 558.386 25.9033 558.279 25.57C558.179 25.2367 558.129 24.86 558.129 24.44C558.129 24.02 558.179 23.6467 558.279 23.32C558.386 22.9867 558.536 22.7067 558.729 22.48C558.929 22.2467 559.166 22.07 559.439 21.95C559.713 21.8233 560.019 21.76 560.359 21.76C560.686 21.76 560.983 21.8233 561.249 21.95C561.516 22.07 561.743 22.24 561.929 22.46C562.116 22.68 562.259 22.9467 562.359 23.26C562.466 23.5667 562.519 23.9067 562.519 24.28V24.55H558.729V24.8C558.729 25.0667 558.766 25.3133 558.839 25.54C558.919 25.76 559.029 25.95 559.169 26.11C559.316 26.27 559.493 26.3967 559.699 26.49C559.906 26.5767 560.139 26.62 560.399 26.62C561.146 26.62 561.663 26.2767 561.949 25.59L562.369 25.87C562.209 26.25 561.956 26.5533 561.609 26.78C561.269 27.0067 560.856 27.12 560.369 27.12ZM560.359 22.24C560.113 22.24 559.889 22.2867 559.689 22.38C559.489 22.4667 559.316 22.59 559.169 22.75C559.029 22.91 558.919 23.1033 558.839 23.33C558.766 23.55 558.729 23.7933 558.729 24.06V24.11H561.899V24.03C561.899 23.7633 561.863 23.52 561.789 23.3C561.716 23.0733 561.609 22.8833 561.469 22.73C561.336 22.5767 561.173 22.4567 560.979 22.37C560.793 22.2833 560.586 22.24 560.359 22.24ZM567.279 26.18H567.249C567.116 26.4667 566.919 26.6967 566.659 26.87C566.406 27.0367 566.082 27.12 565.689 27.12C565.029 27.12 564.512 26.8867 564.139 26.42C563.766 25.9533 563.579 25.2933 563.579 24.44C563.579 23.5867 563.766 22.9267 564.139 22.46C564.512 21.9933 565.029 21.76 565.689 21.76C566.082 21.76 566.409 21.8467 566.669 22.02C566.929 22.1867 567.122 22.4133 567.249 22.7H567.279V19.6H567.849V27H567.279V26.18ZM565.819 26.61C566.019 26.61 566.206 26.5833 566.379 26.53C566.559 26.4767 566.716 26.4 566.849 26.3C566.982 26.1933 567.086 26.07 567.159 25.93C567.239 25.7833 567.279 25.62 567.279 25.44V23.41C567.279 23.2433 567.239 23.09 567.159 22.95C567.086 22.81 566.982 22.69 566.849 22.59C566.716 22.49 566.559 22.4133 566.379 22.36C566.206 22.3 566.019 22.27 565.819 22.27C565.306 22.27 564.906 22.4333 564.619 22.76C564.332 23.0867 564.189 23.5267 564.189 24.08V24.8C564.189 25.3533 564.332 25.7933 564.619 26.12C564.906 26.4467 565.306 26.61 565.819 26.61Z" fill="#C6C6C6"/>
</g>
<defs>
<linearGradient id="paint0_linear_332_16447" x1="345" y1="16" x2="345" y2="154" gradientUnits="userSpaceOnUse">
<stop stop-color="#212121"/>
<stop offset="1" stop-color="#272727"/>
</linearGradient>
<clipPath id="clip0_332_16447">
<rect width="695" height="220" fill="white"/>
</clipPath>
</defs>
</svg>
